# This file uses centimeters as units for non-parametric coordinates.

mtllib doorWindow.mtl
g default
v -6.063649 -7.775267 -0.034114
v 6.597216 -7.779450 -0.093586
v -6.058493 7.705942 -0.031314
v 6.602372 7.701759 -0.090786
v -6.057376 7.705936 -0.208216
v 6.603523 7.701755 -0.267680
v -6.062535 -7.775274 -0.211016
v 6.598364 -7.779454 -0.270472
vt 0.375000 0.000000
vt 0.625000 0.000000
vt 0.625000 0.250000
vt 0.375000 0.250000
vt 0.625000 0.500000
vt 0.375000 0.500000
vt 0.625000 0.750000
vt 0.375000 0.750000
vt 0.625000 1.000000
vt 0.375000 1.000000
vt 0.875000 0.000000
vt 0.875000 0.250000
vt 0.125000 0.000000
vt 0.125000 0.250000
vn 0.004696 -0.000182 0.999989
vn 0.004696 -0.000182 0.999989
vn 0.004696 -0.000182 0.999989
vn 0.004696 -0.000182 0.999989
vn 0.000330 1.000000 -0.000022
vn 0.000330 1.000000 -0.000022
vn 0.000330 1.000000 -0.000022
vn 0.000330 1.000000 -0.000022
vn -0.004696 0.000182 -0.999989
vn -0.004696 0.000182 -0.999989
vn -0.004696 0.000182 -0.999989
vn -0.004696 0.000182 -0.999989
vn -0.000330 -1.000000 0.000028
vn -0.000330 -1.000000 0.000028
vn -0.000330 -1.000000 0.000028
vn -0.000330 -1.000000 0.000028
vn 0.999979 -0.000334 0.006442
vn 0.999979 -0.000334 0.006442
vn 0.999979 -0.000334 0.006442
vn 0.999979 -0.000334 0.006442
vn -0.999979 0.000334 -0.006441
vn -0.999979 0.000334 -0.006441
vn -0.999979 0.000334 -0.006441
vn -0.999979 0.000334 -0.006441
s off
g polySurface2 polySurface1
usemtl lambert4SG
f 1/1/1 2/2/2 4/3/3 3/4/4
f 3/4/5 4/3/6 6/5/7 5/6/8
f 5/6/9 6/5/10 8/7/11 7/8/12
f 7/8/13 8/7/14 2/9/15 1/10/16
f 2/2/17 8/11/18 6/12/19 4/3/20
f 7/13/21 1/1/22 3/4/23 5/14/24
