# This file uses centimeters as units for non-parametric coordinates.

mtllib windows.mtl
g default
v -18.237732 -2.681794 11.998001
v -18.235962 -2.681791 0.559029
v -18.240139 6.729036 11.998009
v -18.238365 6.729038 0.559036
v -18.408970 6.728993 11.998001
v -18.407196 6.728995 0.558998
v -18.406570 -2.681837 11.997995
v -18.404797 -2.681834 0.558990
v -10.580168 -2.412516 -30.550476
v 0.549624 -2.412513 -30.750168
v -10.580185 6.745400 -30.552811
v 0.549576 6.745402 -30.752510
v -10.583153 6.745358 -30.717083
v 0.546639 6.745360 -30.916767
v -10.583103 -2.412558 -30.714741
v 0.546688 -2.412555 -30.914440
v 17.300793 -8.681702 -21.320728
v 19.140051 -8.685587 -27.787785
v 17.303255 5.697890 -21.322857
v 19.142513 5.694005 -27.789909
v 17.194965 5.697884 -21.354977
v 19.034225 5.694001 -27.822029
v 17.192472 -8.681708 -21.352859
v 19.031763 -8.685591 -27.819889
v 39.543217 -2.435975 -21.584785
v 50.672977 -2.435972 -21.784477
v 39.543167 6.721941 -21.587128
v 50.672932 6.721943 -21.786819
v 39.540203 6.721899 -21.751392
v 50.669991 6.721901 -21.951084
v 39.540249 -2.436017 -21.749058
v 50.670040 -2.436014 -21.948750
v 56.932110 -0.690950 2.838608
v 56.980350 -0.690948 8.613205
v 56.934673 6.742541 2.838585
v 56.982910 6.742543 8.613167
v 57.109158 6.742512 2.836288
v 57.157387 6.742513 8.610870
v 57.106560 -0.690982 2.836342
v 57.154797 -0.690980 8.610909
v 50.908970 -2.627542 43.772469
v 39.513474 -2.627542 44.067581
v 50.908970 6.750652 43.772469
v 39.513474 6.750652 44.067581
v 50.913322 6.750652 43.940666
v 39.517826 6.750652 44.235764
v 50.913322 -2.627542 43.940666
v 39.517826 -2.627542 44.235764
v -8.312608 -8.920393 32.945061
v 4.346673 -8.924576 32.736015
v -8.307418 6.560816 32.947800
v 4.351861 6.556633 32.738754
v -8.308391 6.560810 32.770897
v 4.350921 6.556629 32.561859
v -8.313582 -8.920400 32.768158
v 4.345730 -8.924581 32.559128
vt 0.375000 0.000000
vt 0.625000 0.000000
vt 0.625000 0.250000
vt 0.375000 0.250000
vt 0.625000 0.500000
vt 0.375000 0.500000
vt 0.625000 0.750000
vt 0.375000 0.750000
vt 0.625000 1.000000
vt 0.375000 1.000000
vt 0.875000 0.000000
vt 0.875000 0.250000
vt 0.125000 0.000000
vt 0.125000 0.250000
vt 0.375000 0.000000
vt 0.625000 0.000000
vt 0.625000 0.250000
vt 0.375000 0.250000
vt 0.625000 0.500000
vt 0.375000 0.500000
vt 0.625000 0.750000
vt 0.375000 0.750000
vt 0.625000 1.000000
vt 0.375000 1.000000
vt 0.875000 0.000000
vt 0.875000 0.250000
vt 0.125000 0.000000
vt 0.125000 0.250000
vt 0.375000 0.000000
vt 0.625000 0.000000
vt 0.625000 0.250000
vt 0.375000 0.250000
vt 0.625000 0.500000
vt 0.375000 0.500000
vt 0.625000 0.750000
vt 0.375000 0.750000
vt 0.625000 1.000000
vt 0.375000 1.000000
vt 0.875000 0.000000
vt 0.875000 0.250000
vt 0.125000 0.000000
vt 0.125000 0.250000
vt 0.375000 0.000000
vt 0.625000 0.000000
vt 0.625000 0.250000
vt 0.375000 0.250000
vt 0.625000 0.500000
vt 0.375000 0.500000
vt 0.625000 0.750000
vt 0.375000 0.750000
vt 0.625000 1.000000
vt 0.375000 1.000000
vt 0.875000 0.000000
vt 0.875000 0.250000
vt 0.125000 0.000000
vt 0.125000 0.250000
vt 0.375000 0.000000
vt 0.625000 0.000000
vt 0.625000 0.250000
vt 0.375000 0.250000
vt 0.625000 0.500000
vt 0.375000 0.500000
vt 0.625000 0.750000
vt 0.375000 0.750000
vt 0.625000 1.000000
vt 0.375000 1.000000
vt 0.875000 0.000000
vt 0.875000 0.250000
vt 0.125000 0.000000
vt 0.125000 0.250000
vt 0.375000 0.000000
vt 0.625000 0.000000
vt 0.625000 0.250000
vt 0.375000 0.250000
vt 0.625000 0.500000
vt 0.375000 0.500000
vt 0.625000 0.750000
vt 0.375000 0.750000
vt 0.625000 1.000000
vt 0.375000 1.000000
vt 0.875000 0.000000
vt 0.875000 0.250000
vt 0.125000 0.000000
vt 0.125000 0.250000
vt 0.375000 0.000000
vt 0.625000 0.000000
vt 0.625000 0.250000
vt 0.375000 0.250000
vt 0.625000 0.500000
vt 0.375000 0.500000
vt 0.625000 0.750000
vt 0.375000 0.750000
vt 0.625000 1.000000
vt 0.375000 1.000000
vt 0.875000 0.000000
vt 0.875000 0.250000
vt 0.125000 0.000000
vt 0.125000 0.250000
vn 1.000000 0.000256 0.000155
vn 1.000000 0.000256 0.000155
vn 1.000000 0.000256 0.000155
vn 1.000000 0.000256 0.000155
vn -0.000254 1.000000 -0.000000
vn -0.000254 1.000000 -0.000000
vn -0.000254 1.000000 -0.000000
vn -0.000254 1.000000 -0.000000
vn -1.000000 -0.000256 -0.000155
vn -1.000000 -0.000256 -0.000155
vn -1.000000 -0.000256 -0.000155
vn -1.000000 -0.000256 -0.000155
vn 0.000254 -1.000000 0.000000
vn 0.000254 -1.000000 0.000000
vn 0.000254 -1.000000 0.000000
vn 0.000254 -1.000000 0.000000
vn 0.000175 -0.000001 -1.000000
vn 0.000175 -0.000001 -1.000000
vn 0.000175 -0.000001 -1.000000
vn 0.000175 -0.000001 -1.000000
vn -0.000152 -0.000001 1.000000
vn -0.000152 -0.000001 1.000000
vn -0.000152 -0.000001 1.000000
vn -0.000152 -0.000001 1.000000
vn 0.017939 0.000256 0.999839
vn 0.017939 0.000256 0.999839
vn 0.017939 0.000256 0.999839
vn 0.017939 0.000256 0.999839
vn -0.000004 1.000000 -0.000253
vn -0.000004 1.000000 -0.000253
vn -0.000004 1.000000 -0.000253
vn -0.000004 1.000000 -0.000253
vn -0.017939 -0.000256 -0.999839
vn -0.017939 -0.000256 -0.999839
vn -0.017939 -0.000256 -0.999839
vn -0.017939 -0.000256 -0.999839
vn 0.000005 -1.000000 0.000259
vn 0.000005 -1.000000 0.000259
vn 0.000005 -1.000000 0.000259
vn 0.000005 -1.000000 0.000259
vn 0.999839 0.000000 -0.017936
vn 0.999839 0.000000 -0.017936
vn 0.999839 0.000000 -0.017936
vn 0.999839 0.000000 -0.017936
vn -0.999839 0.000000 0.017936
vn -0.999839 0.000000 0.017936
vn -0.999839 0.000000 0.017936
vn -0.999839 0.000000 0.017936
vn 0.961856 -0.000125 0.273557
vn 0.961856 -0.000125 0.273557
vn 0.961856 -0.000125 0.273557
vn 0.961856 -0.000125 0.273557
vn 0.000133 1.000000 -0.000563
vn 0.000133 1.000000 -0.000563
vn 0.000133 1.000000 -0.000563
vn 0.000133 1.000000 -0.000563
vn -0.961856 0.000125 -0.273557
vn -0.961856 0.000125 -0.273557
vn -0.961856 0.000125 -0.273557
vn -0.961856 0.000125 -0.273557
vn -0.000123 -1.000000 0.000567
vn -0.000123 -1.000000 0.000567
vn -0.000123 -1.000000 0.000567
vn -0.000123 -1.000000 0.000567
vn 0.284241 -0.000191 -0.958753
vn 0.284241 -0.000191 -0.958753
vn 0.284241 -0.000191 -0.958753
vn 0.284241 -0.000191 -0.958753
vn -0.284241 0.000191 0.958753
vn -0.284241 0.000191 0.958753
vn -0.284241 0.000191 0.958753
vn -0.284241 0.000191 0.958753
vn 0.017939 0.000256 0.999839
vn 0.017939 0.000256 0.999839
vn 0.017939 0.000256 0.999839
vn 0.017939 0.000256 0.999839
vn -0.000004 1.000000 -0.000254
vn -0.000004 1.000000 -0.000254
vn -0.000004 1.000000 -0.000254
vn -0.000004 1.000000 -0.000254
vn -0.017939 -0.000256 -0.999839
vn -0.017939 -0.000256 -0.999839
vn -0.017939 -0.000256 -0.999839
vn -0.017939 -0.000256 -0.999839
vn 0.000004 -1.000000 0.000254
vn 0.000004 -1.000000 0.000254
vn 0.000004 -1.000000 0.000254
vn 0.000004 -1.000000 0.000254
vn 0.999839 -0.000001 -0.017919
vn 0.999839 -0.000001 -0.017919
vn 0.999839 -0.000001 -0.017919
vn 0.999839 -0.000001 -0.017919
vn -0.999839 -0.000001 0.017942
vn -0.999839 -0.000001 0.017942
vn -0.999839 -0.000001 0.017942
vn -0.999839 -0.000001 0.017942
vn -0.999965 0.000349 0.008353
vn -0.999965 0.000349 0.008353
vn -0.999965 0.000349 0.008353
vn -0.999965 0.000349 0.008353
vn 0.000174 1.000000 -0.000002
vn 0.000174 1.000000 -0.000002
vn 0.000174 1.000000 -0.000002
vn 0.000174 1.000000 -0.000002
vn 0.999965 -0.000347 -0.008353
vn 0.999965 -0.000347 -0.008353
vn 0.999965 -0.000347 -0.008353
vn 0.999965 -0.000347 -0.008353
vn -0.000186 -1.000000 0.000003
vn -0.000186 -1.000000 0.000003
vn -0.000186 -1.000000 0.000003
vn -0.000186 -1.000000 0.000003
vn 0.013176 0.000000 0.999913
vn 0.013176 0.000000 0.999913
vn 0.013176 0.000000 0.999913
vn 0.013176 0.000000 0.999913
vn -0.013176 0.000000 -0.999913
vn -0.013176 0.000000 -0.999913
vn -0.013176 0.000000 -0.999913
vn -0.013176 0.000000 -0.999913
vn -0.025886 0.000000 -0.999665
vn -0.025886 0.000000 -0.999665
vn -0.025886 0.000000 -0.999665
vn -0.025886 0.000000 -0.999665
vn 0.000000 1.000000 0.000000
vn 0.000000 1.000000 0.000000
vn 0.000000 1.000000 0.000000
vn 0.000000 1.000000 0.000000
vn 0.025886 0.000000 0.999665
vn 0.025886 0.000000 0.999665
vn 0.025886 0.000000 0.999665
vn 0.025886 0.000000 0.999665
vn 0.000000 -1.000000 0.000000
vn 0.000000 -1.000000 0.000000
vn 0.000000 -1.000000 0.000000
vn 0.000000 -1.000000 0.000000
vn -0.999665 0.000000 0.025886
vn -0.999665 0.000000 0.025886
vn -0.999665 0.000000 0.025886
vn -0.999665 0.000000 0.025886
vn 0.999665 0.000000 -0.025886
vn 0.999665 0.000000 -0.025886
vn 0.999665 0.000000 -0.025886
vn 0.999665 0.000000 -0.025886
vn 0.016510 -0.000182 0.999864
vn 0.016510 -0.000182 0.999864
vn 0.016510 -0.000182 0.999864
vn 0.016510 -0.000182 0.999864
vn 0.000330 1.000000 -0.000026
vn 0.000330 1.000000 -0.000026
vn 0.000330 1.000000 -0.000026
vn 0.000330 1.000000 -0.000026
vn -0.016510 0.000182 -0.999864
vn -0.016510 0.000182 -0.999864
vn -0.016510 0.000182 -0.999864
vn -0.016510 0.000182 -0.999864
vn -0.000330 -1.000000 0.000032
vn -0.000330 -1.000000 0.000032
vn -0.000330 -1.000000 0.000032
vn -0.000330 -1.000000 0.000032
vn 0.999986 -0.000334 -0.005372
vn 0.999986 -0.000334 -0.005372
vn 0.999986 -0.000334 -0.005372
vn 0.999986 -0.000334 -0.005372
vn -0.999986 0.000334 0.005373
vn -0.999986 0.000334 0.005373
vn -0.999986 0.000334 0.005373
vn -0.999986 0.000334 0.005373
s off
g windows_:pasted__polySurface5 group
usemtl windows_:pasted__lambert4SG
f 1/1/1 2/2/2 4/3/3 3/4/4
f 3/4/5 4/3/6 6/5/7 5/6/8
f 5/6/9 6/5/10 8/7/11 7/8/12
f 7/8/13 8/7/14 2/9/15 1/10/16
f 2/2/17 8/11/18 6/12/19 4/3/20
f 7/13/21 1/1/22 3/4/23 5/14/24
usemtl windows_:lambert4SG
f 9/15/25 10/16/26 12/17/27 11/18/28
f 11/18/29 12/17/30 14/19/31 13/20/32
f 13/20/33 14/19/34 16/21/35 15/22/36
f 15/22/37 16/21/38 10/23/39 9/24/40
f 10/16/41 16/25/42 14/26/43 12/17/44
f 15/27/45 9/15/46 11/18/47 13/28/48
f 17/29/49 18/30/50 20/31/51 19/32/52
f 19/32/53 20/31/54 22/33/55 21/34/56
f 21/34/57 22/33/58 24/35/59 23/36/60
f 23/36/61 24/35/62 18/37/63 17/38/64
f 18/30/65 24/39/66 22/40/67 20/31/68
f 23/41/69 17/29/70 19/32/71 21/42/72
f 25/43/73 26/44/74 28/45/75 27/46/76
f 27/46/77 28/45/78 30/47/79 29/48/80
f 29/48/81 30/47/82 32/49/83 31/50/84
f 31/50/85 32/49/86 26/51/87 25/52/88
f 26/44/89 32/53/90 30/54/91 28/45/92
f 31/55/93 25/43/94 27/46/95 29/56/96
f 33/57/97 34/58/98 36/59/99 35/60/100
f 35/60/101 36/59/102 38/61/103 37/62/104
f 37/62/105 38/61/106 40/63/107 39/64/108
f 39/64/109 40/63/110 34/65/111 33/66/112
f 34/58/113 40/67/114 38/68/115 36/59/116
f 39/69/117 33/57/118 35/60/119 37/70/120
f 41/71/121 42/72/122 44/73/123 43/74/124
f 43/74/125 44/73/126 46/75/127 45/76/128
f 45/76/129 46/75/130 48/77/131 47/78/132
f 47/78/133 48/77/134 42/79/135 41/80/136
f 42/72/137 48/81/138 46/82/139 44/73/140
f 47/83/141 41/71/142 43/74/143 45/84/144
f 49/85/145 50/86/146 52/87/147 51/88/148
f 51/88/149 52/87/150 54/89/151 53/90/152
f 53/90/153 54/89/154 56/91/155 55/92/156
f 55/92/157 56/91/158 50/93/159 49/94/160
f 50/86/161 56/95/162 54/96/163 52/87/164
f 55/97/165 49/85/166 51/88/167 53/98/168
