# 3ds Max Wavefront OBJ Exporter v0.99 - (c)2007 guruware
# File Created: 21.11.2021 13:18:58

mtllib BarraDerCorta.mtl

#
# object BarraDerCorta
#

v  -0.3871204257 0.2188549042 1.0397872925
v  -0.3871501684 0.2027056217 1.0547171831
v  -0.3889346123 0.2394355536 1.0700634718
v  -0.3871799111 0.2716450095 0.6546131968
v  -0.3871204257 0.2822030187 0.6821235418
v  -0.3889346123 0.3073638082 0.6865846515
v  -0.3868824840 0.2800913453 1.0687549114
v  -0.3869419694 0.2702174187 1.0482932329
v  -0.3869419694 0.3334762752 0.6912242174
v  -0.3868824840 0.3528375626 0.6690077782
v  -0.3868824840 0.3615814149 0.6195784807
v  -0.3870311975 0.3235725760 0.5949827433
v  -0.3868824840 0.2802995443 1.0785694122
v  -0.3699450493 0.2027056217 1.0547171831
v  -0.3699450493 0.1995530725 1.0617361069
v  -0.3871799111 0.1995530725 1.0617361069
v  -0.3682349622 0.2394355536 1.0700634718
v  -0.3700194061 0.2188549042 1.0397872925
v  -0.3700194061 0.2822030187 0.6821235418
v  -0.3699450493 0.2716450095 0.6546131968
v  -0.3871799111 0.2805375457 0.6044700742
v  -0.3699450493 0.2805375457 0.6044700742
v  -0.3703465760 0.3528375626 0.6690077782
v  -0.3703465760 0.3615814149 0.6195784807
v  -0.3702722192 0.3334762752 0.6912242174
v  -0.3682349622 0.3073638082 0.6865846515
v  -0.3702722192 0.2702174187 1.0482932329
v  -0.3703317046 0.2800913453 1.0687549114
v  -0.3701383770 0.3235725760 0.5949827433
v  -0.3703465760 0.2802995443 1.0785694122
# 30 vertices

vn -0.9975427389 -0.0688512102 -0.0129633239
vn -0.9988682270 -0.0351301469 -0.0320668966
vn -0.9999921918 0.0039499747 -0.0002863515
vn -0.9997379184 -0.0172479823 -0.0150564089
vn -0.9974866509 -0.0700816289 -0.0104427878
vn -0.9999926686 0.0036810930 -0.0011028561
vn -0.9986618161 0.0499804951 -0.0132869137
vn -0.9972425103 0.0731969997 0.0122320466
vn -0.9971868396 0.0734634399 0.0148859257
vn -0.9995808005 0.0280740932 -0.0070900731
vn -0.9995952845 0.0270836689 -0.0086990958
vn -0.9999058843 0.0058031348 -0.0124359271
vn -0.9987297654 0.0503772087 -0.0010685992
vn 0.0000000000 -0.7513056993 -0.6599544287
vn 0.0000000000 -0.7512457967 -0.6600224972
vn 0.0000000000 -0.9122105837 -0.4097218513
vn 0.0000000000 -0.9122105241 -0.4097218215
vn 0.9999856353 0.0053655040 -0.0000486685
vn 0.9990779161 -0.0391662754 -0.0175916404
vn 0.9989573956 -0.0335949585 -0.0309133995
vn 0.0000000000 -0.6788417697 -0.7342846990
vn 0.0000000000 -0.6788417697 -0.7342846394
vn 0.0000000000 -0.9846746325 -0.1744021773
vn 0.0000000000 -0.9336054325 0.3583030701
vn 0.0000000000 -0.9336054325 0.3583030403
vn 0.0000000000 -0.9336053729 0.3583030403
vn 0.0000000000 -0.9846361876 -0.1746186614
vn 0.0000000000 0.9847120047 0.1741910875
vn 0.9995420575 0.0294804834 -0.0068297014
vn 0.9970601201 0.0751022547 0.0151945222
vn 0.9999868870 0.0050598104 -0.0008569997
vn 0.0000000000 0.9846669436 0.1744451672
vn 0.0000000000 0.9485848546 -0.3165230751
vn 0.0000000000 0.9006224275 -0.4346025288
vn 0.0000000000 0.9486126304 -0.3164400160
vn 0.9971182942 0.0748251826 0.0125031136
vn 0.9986095428 0.0510820225 -0.0130233644
vn 0.0000000000 0.7538880110 0.6570029855
vn 0.0000000000 0.7538879514 0.6570029855
vn 0.0000000000 0.7538880110 0.6570030451
vn 0.0000000000 0.7538878918 0.6570030451
vn 0.9999006391 0.0070453952 -0.0122159142
vn 0.9995585084 0.0284855850 -0.0084504560
vn 0.0000000000 0.5432786942 -0.8395524621
vn 0.0000000000 0.5432786942 -0.8395525217
vn -0.9997443557 -0.0157577135 -0.0162155721
vn 0.9976247549 -0.0676874220 -0.0127800144
vn 0.9975679517 -0.0689438358 -0.0102458242
vn 0.9997587800 -0.0161681492 -0.0148682194
vn 0.9997639060 -0.0146800168 -0.0160249621
vn 0.0000000000 -0.2152865380 -0.9765509367
vn 0.0000000000 -0.2152865231 -0.9765510559
vn 0.0000000000 -0.2152865380 -0.9765510559
vn 0.0000000000 -0.2152865082 -0.9765509963
vn 0.9986720085 0.0515178293 0.0004203454
vn 0.0000000000 0.9997750521 -0.0212085489
vn -0.9989840984 -0.0393761657 -0.0219189413
# 57 vertex normals

vt 0.5108726621 0.8936946988 0.0000000000
vt 0.5135726929 0.8901294470 0.0000000000
vt 0.5056649446 0.8883607984 0.0000000000
vt 0.5139274597 0.9727500677 0.0000000000
vt 0.5108488202 0.9676071405 0.0000000000
vt 0.5056393743 0.9676054120 0.0000000000
vt 0.4975504875 0.8900610805 0.0000000000
vt 0.5002483726 0.8938144445 0.0000000000
vt 0.5002246499 0.9676037431 0.0000000000
vt 0.4971420169 0.9727442861 0.0000000000
vt 0.4971407056 0.9829607606 0.0000000000
vt 0.5056291819 0.9865401983 0.0000000000
vt 0.4971660674 0.8880977035 0.0000000000
vt 0.1570459008 0.7179214954 0.0000000000
vt 0.1535446197 0.7179215550 0.0000000000
vt 0.1535428017 0.7194881439 0.0000000000
vt 0.1570472419 0.7194880843 0.0000000000
vt 0.4852218926 0.8883609176 0.0000000000
vt 0.4769289792 0.8886114359 0.0000000000
vt 0.4773146510 0.8901297450 0.0000000000
vt 0.1535575390 0.7134492993 0.0000000000
vt 0.1570365876 0.7134492397 0.0000000000
vt 0.1535562873 0.6395368576 0.0000000000
vt 0.1570353359 0.6395367980 0.0000000000
vt 0.1535413414 0.6335430145 0.0000000000
vt 0.1570457816 0.6335429549 0.0000000000
vt 0.1570456028 0.6231768131 0.0000000000
vt 0.1535411626 0.6231768727 0.0000000000
vt 0.1620010436 0.7005869150 0.0000000000
vt 0.1586345434 0.7005869746 0.0000000000
vt 0.1586347222 0.7108033895 0.0000000000
vt 0.1620012224 0.7108033299 0.0000000000
vt 0.4937476218 0.9727441669 0.0000000000
vt 0.4906648695 0.9676037431 0.0000000000
vt 0.4852495193 0.9676054716 0.0000000000
vt 0.1620101929 0.6208038330 0.0000000000
vt 0.1586183012 0.6208038926 0.0000000000
vt 0.1586195976 0.6945931315 0.0000000000
vt 0.1620114893 0.6945930719 0.0000000000
vt 0.1586312205 0.6161814928 0.0000000000
vt 0.1620008796 0.6161814332 0.0000000000
vt 0.4906391799 0.8938144445 0.0000000000
vt 0.4933369756 0.8900609612 0.0000000000
vt 0.4852560759 0.9865402579 0.0000000000
vt 0.4937444925 0.9829605818 0.0000000000
vt 0.1585941017 0.7200155258 0.0000000000
vt 0.1620303839 0.7200154662 0.0000000000
vt 0.5139167905 0.9831162095 0.0000000000
vt 0.4800148308 0.8936949372 0.0000000000
vt 0.4800405800 0.9676074386 0.0000000000
vt 0.4769621193 0.9727504849 0.0000000000
vt 0.4769682884 0.9831166267 0.0000000000
vt 0.1535808593 0.6142099500 0.0000000000
vt 0.1570171416 0.6142098904 0.0000000000
vt 0.4937213361 0.8880975842 0.0000000000
vt 0.1619995385 0.6141807437 0.0000000000
vt 0.1586330384 0.6141808033 0.0000000000
vt 0.5139583349 0.8886110783 0.0000000000
# 58 texture coords

o BarraDerCorta
g BarraDerCorta
usemtl 02___Default
s off
f 1/1/1 2/2/2 3/3/3 
f 4/4/4 5/5/5 6/6/6 
f 3/3/3 7/7/7 8/8/8 
f 6/6/6 9/9/9 10/10/10 
f 6/6/6 10/10/10 11/11/11 
f 11/11/11 12/12/12 6/6/6 
f 3/3/3 8/8/8 9/9/9 
f 9/9/9 6/6/6 3/3/3 
f 3/3/3 13/13/13 7/7/7 
f 2/14/14 14/15/15 15/16/16 
f 15/16/16 16/17/17 2/14/14 
f 17/18/18 15/19/19 14/20/20 
f 18/21/21 14/15/15 2/14/14 
f 2/14/14 1/22/22 18/21/21 
f 19/23/23 18/21/23 1/22/23 
f 1/22/23 5/24/23 19/23/23 
f 20/25/24 19/23/25 5/24/24 
f 5/24/24 4/26/26 20/25/24 
f 21/27/27 22/28/27 20/25/27 
f 20/25/27 4/26/27 21/27/27 
f 10/29/28 23/30/28 24/31/28 
f 24/31/28 11/32/28 10/29/28 
f 23/33/29 25/34/30 26/35/31 
f 8/36/32 27/37/32 25/38/32 
f 25/38/32 9/39/32 8/36/32 
f 28/40/33 27/37/34 8/36/34 
f 8/36/34 7/41/35 28/40/33 
f 27/42/36 28/43/37 17/18/18 
f 9/39/38 25/38/39 23/30/40 
f 23/30/40 10/29/41 9/39/38 
f 25/34/30 27/42/36 17/18/18 
f 17/18/18 26/35/31 25/34/30 
f 29/44/42 24/45/43 23/33/29 
f 23/33/29 26/35/31 29/44/42 
f 24/31/44 29/46/45 12/47/44 
f 12/47/44 11/32/45 24/31/44 
f 1/1/1 3/3/3 6/6/6 
f 6/6/6 5/5/5 1/1/1 
f 4/4/4 6/6/6 12/12/12 
f 12/12/12 21/48/46 4/4/4 
f 17/18/18 14/20/20 18/49/47 
f 26/35/31 17/18/18 18/49/47 
f 18/49/47 19/50/48 26/35/31 
f 26/35/31 19/50/48 20/51/49 
f 22/52/50 29/44/42 26/35/31 
f 26/35/31 20/51/49 22/52/50 
f 29/53/51 22/28/52 21/27/53 
f 21/27/53 12/54/54 29/53/51 
f 30/55/55 17/18/18 28/43/37 
f 13/56/56 30/57/56 28/40/33 
f 28/40/33 7/41/35 13/56/56 
f 16/58/57 3/3/3 2/2/2 
# 52 faces

