# 3ds Max Wavefront OBJ Exporter v0.99 - (c)2007 guruware
# File Created: 21.11.2021 13:19:19

mtllib BarraIzqCorta.mtl

#
# object BarraIzqCorta
#

v  0.3758520782 0.2188550234 1.0397887230
v  0.3776662648 0.2394356728 1.0700650215
v  0.3758818209 0.2027057409 1.0547187328
v  0.3759115636 0.2716451287 0.6546146870
v  0.3776662648 0.3073639274 0.6865861416
v  0.3758520782 0.2822031379 0.6821250319
v  0.3756736219 0.2702175379 1.0482947826
v  0.3756141365 0.2800914645 1.0687563419
v  0.3756141365 0.3528376818 0.6690092683
v  0.3756736219 0.3334763944 0.6912257075
v  0.3757628500 0.3235726953 0.5949842334
v  0.3756141365 0.3615815341 0.6195799708
v  0.3756141365 0.2802996635 1.0785708427
v  0.3759115636 0.1995531917 1.0617375374
v  0.3586767018 0.1995531917 1.0617375374
v  0.3586767018 0.2027057409 1.0547187328
v  0.3569666147 0.2394356728 1.0700650215
v  0.3587510586 0.2188550234 1.0397887230
v  0.3587510586 0.2822031379 0.6821250319
v  0.3586767018 0.2716451287 0.6546146870
v  0.3759115636 0.2805376649 0.6044715643
v  0.3586767018 0.2805376649 0.6044715643
v  0.3590782285 0.3615815341 0.6195799708
v  0.3590782285 0.3528376818 0.6690092683
v  0.3569666147 0.3073639274 0.6865861416
v  0.3590038717 0.3334763944 0.6912257075
v  0.3590038717 0.2702175379 1.0482947826
v  0.3590633571 0.2800914645 1.0687563419
v  0.3588700294 0.3235726953 0.5949842334
v  0.3590782285 0.2802996635 1.0785708427
# 30 vertices

vn 0.9975427985 -0.0688505918 -0.0129633220
vn 0.9999922514 0.0039500096 -0.0002863493
vn 0.9988682270 -0.0351300985 -0.0320668444
vn 0.9997379184 -0.0172479786 -0.0150564099
vn 0.9999926686 0.0036811233 -0.0011028569
vn 0.9974866509 -0.0700810179 -0.0104427887
vn 0.9972425699 0.0731964633 0.0122320456
vn 0.9986618161 0.0499803722 -0.0132868597
vn 0.9995808005 0.0280739479 -0.0070900731
vn 0.9971868992 0.0734629333 0.0148859248
vn 0.9999058843 0.0058030589 -0.0124359271
vn 0.9995954037 0.0270835254 -0.0086990967
vn 0.9987297654 0.0503772087 -0.0010685992
vn 0.0000000000 -0.7513058782 -0.6599542499
vn 0.0000000000 -0.9122105241 -0.4097218215
vn 0.0000000000 -0.9122105837 -0.4097218513
vn 0.0000000000 -0.7512460351 -0.6600223184
vn -0.9999856949 0.0053653968 -0.0000486676
vn -0.9989573956 -0.0335942395 -0.0309133995
vn -0.9990779161 -0.0391662754 -0.0175916404
vn 0.0000000000 -0.6788420677 -0.7342843413
vn 0.0000000000 -0.6788420677 -0.7342844009
vn 0.0000000000 -0.9846746325 -0.1744021773
vn 0.0000000000 -0.9336054921 0.3583026826
vn 0.0000000000 -0.9336054921 0.3583026230
vn 0.0000000000 -0.9336054921 0.3583026528
vn 0.0000000000 -0.9846361876 -0.1746186614
vn 0.0000000000 0.9847120047 0.1741910875
vn -0.9995420575 0.0294804499 -0.0068297014
vn -0.9999868870 0.0050597633 -0.0008569992
vn -0.9970601201 0.0751022771 0.0151945231
vn 0.0000000000 0.9846669436 0.1744451672
vn 0.0000000000 0.9485848546 -0.3165230751
vn 0.0000000000 0.9486126304 -0.3164400160
vn 0.0000000000 0.9006224275 -0.4346025288
vn -0.9971182942 0.0748252720 0.0125031136
vn -0.9986095428 0.0510821156 -0.0130233644
vn 0.0000000000 0.7538879514 0.6570030451
vn 0.0000000000 0.7538880110 0.6570030451
vn 0.0000000000 0.7538878918 0.6570030451
vn 0.0000000000 0.7538880110 0.6570029855
vn -0.9999006391 0.0070458073 -0.0122159142
vn -0.9995585084 0.0284855850 -0.0084504560
vn 0.0000000000 0.5432786942 -0.8395524621
vn 0.0000000000 0.5432786942 -0.8395525217
vn 0.9997443557 -0.0157577135 -0.0162155721
vn -0.9976246953 -0.0676877201 -0.0127800098
vn -0.9975680113 -0.0689441711 -0.0102458224
vn -0.9997587800 -0.0161673389 -0.0148682194
vn -0.9997639060 -0.0146791888 -0.0160249621
vn 0.0000000000 -0.2152867019 -0.9765509367
vn 0.0000000000 -0.2152867317 -0.9765509963
vn 0.0000000000 -0.2152867019 -0.9765509963
vn -0.9986720085 0.0515180603 0.0004203473
vn 0.0000000000 0.9997750521 -0.0212085489
vn 0.9989840984 -0.0393761657 -0.0219189413
# 56 vertex normals

vt 0.5108726621 0.8936946988 0.0000000000
vt 0.5056649446 0.8883607984 0.0000000000
vt 0.5135726929 0.8901294470 0.0000000000
vt 0.5139274597 0.9727500677 0.0000000000
vt 0.5056393743 0.9676054120 0.0000000000
vt 0.5108488202 0.9676071405 0.0000000000
vt 0.5002483726 0.8938144445 0.0000000000
vt 0.4975504875 0.8900610805 0.0000000000
vt 0.4971420169 0.9727442861 0.0000000000
vt 0.5002246499 0.9676037431 0.0000000000
vt 0.5056291819 0.9865401983 0.0000000000
vt 0.4971407056 0.9829607606 0.0000000000
vt 0.4971660674 0.8880977035 0.0000000000
vt 0.1570459008 0.7179214954 0.0000000000
vt 0.1570472419 0.7194880843 0.0000000000
vt 0.1535428017 0.7194881439 0.0000000000
vt 0.1535446197 0.7179215550 0.0000000000
vt 0.4852218926 0.8883609176 0.0000000000
vt 0.4773146510 0.8901297450 0.0000000000
vt 0.4769289792 0.8886114359 0.0000000000
vt 0.1535575390 0.7134492993 0.0000000000
vt 0.1570365876 0.7134492397 0.0000000000
vt 0.1535562873 0.6395368576 0.0000000000
vt 0.1570353359 0.6395367980 0.0000000000
vt 0.1535413414 0.6335430145 0.0000000000
vt 0.1570457816 0.6335429549 0.0000000000
vt 0.1570456028 0.6231768131 0.0000000000
vt 0.1535411626 0.6231768727 0.0000000000
vt 0.1620010436 0.7005869150 0.0000000000
vt 0.1620012224 0.7108033299 0.0000000000
vt 0.1586347222 0.7108033895 0.0000000000
vt 0.1586345434 0.7005869746 0.0000000000
vt 0.4937476218 0.9727441669 0.0000000000
vt 0.4852495193 0.9676054716 0.0000000000
vt 0.4906648695 0.9676037431 0.0000000000
vt 0.1620101929 0.6208038330 0.0000000000
vt 0.1620114893 0.6945930719 0.0000000000
vt 0.1586195976 0.6945931315 0.0000000000
vt 0.1586183012 0.6208038926 0.0000000000
vt 0.1586312205 0.6161814928 0.0000000000
vt 0.1620008796 0.6161814332 0.0000000000
vt 0.4906391799 0.8938144445 0.0000000000
vt 0.4933369756 0.8900609612 0.0000000000
vt 0.4852560759 0.9865402579 0.0000000000
vt 0.4937444925 0.9829605818 0.0000000000
vt 0.1620303839 0.7200154662 0.0000000000
vt 0.1585941017 0.7200155258 0.0000000000
vt 0.5139167905 0.9831162095 0.0000000000
vt 0.4800148308 0.8936949372 0.0000000000
vt 0.4800405800 0.9676074386 0.0000000000
vt 0.4769621193 0.9727504849 0.0000000000
vt 0.4769682884 0.9831166267 0.0000000000
vt 0.1535808593 0.6142099500 0.0000000000
vt 0.1570171416 0.6142098904 0.0000000000
vt 0.4937213361 0.8880975842 0.0000000000
vt 0.1619995385 0.6141807437 0.0000000000
vt 0.1586330384 0.6141808033 0.0000000000
vt 0.5139583349 0.8886110783 0.0000000000
# 58 texture coords

o BarraIzqCorta
g BarraIzqCorta
usemtl 02___Default
s off
f 1/1/1 2/2/2 3/3/3 
f 4/4/4 5/5/5 6/6/6 
f 2/2/2 7/7/7 8/8/8 
f 5/5/5 9/9/9 10/10/10 
f 5/5/5 11/11/11 12/12/12 
f 12/12/12 9/9/9 5/5/5 
f 2/2/2 5/5/5 10/10/10 
f 10/10/10 7/7/7 2/2/2 
f 2/2/2 8/8/8 13/13/13 
f 3/14/14 14/15/15 15/16/16 
f 15/16/16 16/17/17 3/14/14 
f 17/18/18 16/19/19 15/20/20 
f 18/21/21 1/22/22 3/14/14 
f 3/14/14 16/17/17 18/21/21 
f 19/23/23 6/24/23 1/22/23 
f 1/22/23 18/21/23 19/23/23 
f 20/25/24 4/26/25 6/24/26 
f 6/24/26 19/23/26 20/25/24 
f 21/27/27 4/26/27 20/25/27 
f 20/25/27 22/28/27 21/27/27 
f 9/29/28 12/30/28 23/31/28 
f 23/31/28 24/32/28 9/29/28 
f 24/33/29 25/34/30 26/35/31 
f 7/36/32 10/37/32 26/38/32 
f 26/38/32 27/39/32 7/36/32 
f 28/40/33 8/41/34 7/36/35 
f 7/36/35 27/39/35 28/40/33 
f 27/42/36 17/18/18 28/43/37 
f 10/37/38 9/29/39 24/32/40 
f 24/32/40 26/38/41 10/37/38 
f 26/35/31 25/34/30 17/18/18 
f 17/18/18 27/42/36 26/35/31 
f 29/44/42 25/34/30 24/33/29 
f 24/33/29 23/45/43 29/44/42 
f 23/31/44 12/30/45 11/46/44 
f 11/46/44 29/47/45 23/31/44 
f 1/1/1 6/6/6 5/5/5 
f 5/5/5 2/2/2 1/1/1 
f 4/4/4 21/48/46 11/11/11 
f 11/11/11 5/5/5 4/4/4 
f 17/18/18 18/49/47 16/19/19 
f 25/34/30 19/50/48 18/49/47 
f 18/49/47 17/18/18 25/34/30 
f 25/34/30 20/51/49 19/50/48 
f 22/52/50 20/51/49 25/34/30 
f 25/34/30 29/44/42 22/52/50 
f 29/53/51 11/54/52 21/27/53 
f 21/27/53 22/28/51 29/53/51 
f 30/55/54 28/43/37 17/18/18 
f 13/56/55 8/41/34 28/40/33 
f 28/40/33 30/57/55 13/56/55 
f 14/58/56 3/3/3 2/2/2 
# 52 faces

