# 3ds Max Wavefront OBJ Exporter v0.99 - (c)2007 guruware
# File Created: 21.11.2021 13:19:09

mtllib BarraDerLarga.mtl

#
# object BarraDerLarga
#

v  -0.3653795123 0.3559605181 0.1750420779
v  -0.3655282259 0.3142340779 0.1009872854
v  -0.3656620383 0.2758980989 0.1163707525
v  -0.3656620383 0.2735188007 0.1759380102
v  -0.3656620383 0.2735187411 0.6150881052
v  -0.3653795123 0.3559604585 0.6150881052
v  -0.3654389977 0.3407628834 0.5916522741
v  -0.3656174242 0.2886865735 0.5923957825
v  -0.3656174242 0.2886865735 0.6888455153
v  -0.3654389977 0.3407628536 0.6894402504
v  -0.3653795123 0.3559604287 0.6658260822
v  -0.3656620383 0.2735187411 0.6670751572
v  -0.3656174242 0.2886865139 1.0521005392
v  -0.3654389977 0.3407627940 1.0521005392
v  -0.3653795123 0.3559603691 1.0773208141
v  -0.3656620383 0.2735186815 1.0773208141
v  -0.3653943837 0.3530756533 0.1163410172
v  -0.3488435745 0.3559605181 0.1750420779
v  -0.3487692177 0.3407629430 0.2000392824
v  -0.3485164344 0.2886866331 0.2000392675
v  -0.3484420776 0.2735188007 0.1759380102
v  -0.3484420776 0.2735187411 0.6150881052
v  -0.3488435745 0.3559604585 0.6150881052
v  -0.3488435745 0.3559604287 0.6658260822
v  -0.3484420776 0.2735187411 0.6670751572
v  -0.3487692177 0.3407628536 0.6894402504
v  -0.3471781015 0.2891921997 0.6888455153
v  -0.3487692177 0.3407627940 1.0521005392
v  -0.3656620383 0.2758979201 1.1319845915
v  -0.3484420776 0.2735186815 1.0773208141
v  -0.3484569490 0.2758979201 1.1319845915
v  -0.3488287032 0.3530756533 0.1163410172
v  -0.3484569490 0.2758980989 0.1163707525
v  -0.3485164344 0.2886865735 0.5923957825
v  -0.3656174242 0.2886866331 0.2000392675
v  -0.3485164344 0.2886865735 0.6888455153
v  -0.3485164344 0.2886865139 1.0521005392
v  -0.3653943837 0.3530755043 1.1319845915
v  -0.3488287032 0.3530755043 1.1319845915
v  -0.3488435745 0.3559603691 1.0773208141
v  -0.3487692177 0.3407628834 0.5916522741
v  -0.3654389977 0.3407629430 0.2000392824
v  -0.3655282259 0.3142339289 1.1451300383
v  -0.3486354053 0.3142339289 1.1451300383
v  -0.3486354053 0.3142340779 0.1009872854
# 45 vertices

vn -0.9999941587 0.0034477008 -0.0000056499
vn -0.9999940991 0.0034555853 0.0000931882
vn -0.9999940395 0.0034604177 0.0000939918
vn -0.9999940395 0.0034530675 0.0000115058
vn -0.9999941587 0.0034272897 0.0000596411
vn -0.9999940991 0.0034272927 0.0000603268
vn -0.9999941587 0.0034264592 0.0000296888
vn -0.9999941587 0.0034264664 0.0000307255
vn -0.9999940991 0.0034268294 -0.0000331531
vn -0.9999941587 0.0034268347 -0.0000319208
vn -0.9999941587 0.0034267502 -0.0000594619
vn -0.9999942183 0.0034267474 -0.0000600860
vn -0.9999941587 0.0034269611 0.0000315292
vn -0.9999941587 0.0034269614 0.0000315407
vn -0.9999940991 0.0034456349 0.0000099263
vn -0.9999940991 0.0034510577 -0.0000119796
vn -0.9999942780 0.0034102746 0.0000856531
vn 0.9999883175 0.0048334040 0.0000226005
vn 0.9999882579 0.0048553431 0.0000002904
vn 0.9999882579 0.0048553492 0.0000002923
vn 0.9999884963 0.0048179110 0.0000255534
vn 0.9999881387 0.0048689004 -0.0000005834
vn 0.9999881983 0.0048688883 -0.0000005901
vn 0.9999632835 0.0066651287 -0.0054001566
vn 0.9999632835 0.0066621164 -0.0053910981
vn 0.9998465180 0.0174774285 -0.0012363445
vn 0.9998466372 0.0174643956 -0.0013707449
vn 0.0000000000 1.0000000000 0.0000001629
vn 0.0000000000 -0.9990541339 0.0434842594
vn 0.0000000000 -0.9990541935 0.0434842594
vn 0.0000000000 -0.9990541339 0.0434842631
vn 0.0000000000 0.9987946153 -0.0490851589
vn 0.0000000000 0.9987946749 -0.0490851700
vn 0.0000000000 -0.9992032647 -0.0399100594
vn 0.0000000000 -0.9992033243 -0.0399100594
vn 0.0000000000 -1.0000000000 -0.0000001629
vn 0.0000000000 -0.8313789964 -0.5557057261
vn 0.0000000000 -0.8313790560 -0.5557057261
vn 0.0130337514 -0.8204033375 0.5716367960
vn 0.0000000000 -0.8204938769 0.5716553926
vn 0.0000000000 -0.8204938769 0.5716553330
vn 0.0004020725 -0.8204931617 0.5716562271
vn 0.2959042192 -0.7832758427 0.5467354059
vn 0.0000371860 -1.0000000000 -0.0000001629
vn 0.0142244902 -0.9998989105 -0.0000001629
vn 0.3533994555 -0.9354726076 -0.0000001524
vn 0.0000000000 -0.8569574356 -0.5153872967
vn 0.0000000000 -0.8569574356 -0.5153872371
vn 0.0000000000 -0.8569573760 -0.5153872967
vn 0.0000000000 0.9986104369 0.0527012981
vn 0.0000000000 0.9986103773 0.0527012832
vn 0.0000000000 0.8409028053 0.5411863327
vn 0.0000000000 0.8409027457 0.5411863327
vn 0.0000000000 0.8390270472 -0.5440896749
vn 0.0000000000 0.8390271068 -0.5440897346
vn 0.0000000000 0.8544731736 0.5194956064
vn 0.0000000000 0.8544731736 0.5194955468
vn 0.0000000000 0.8544732332 0.5194956064
vn 0.0000000000 0.8544731140 0.5194956064
vn 0.0000000000 -0.8463444114 0.5326359868
vn 0.0000000000 -0.8463444710 0.5326361060
vn 0.0000000000 -0.8463444114 0.5326360464
vn 0.0000000000 0.8565109372 -0.5161288381
vn 0.0000000000 0.8565109968 -0.5161288977
vn 0.0000000000 0.8565109372 -0.5161288977
vn -0.9999941587 0.0034261476 -0.0000297618
vn -0.9999941587 0.0034261481 -0.0000295674
vn -0.9999940395 0.0034540226 -0.0001019493
vn -0.9999942183 0.0034136826 -0.0000918312
vn 0.9999882579 0.0048553115 -0.0000002900
vn 0.9999881983 0.0048553427 -0.0000003002
vn 0.9999883771 0.0048362617 -0.0000234746
vn 0.9999883771 0.0048190202 -0.0000272624
vn 0.9998645186 0.0163798630 0.0016546181
vn 0.9998645186 0.0163804404 0.0016547015
vn 0.9999884367 0.0048215725 -0.0000321666
vn 0.9999877214 0.0049733012 -0.0000095428
vn 0.9999883771 0.0048219264 0.0000293442
vn 0.9999876618 0.0049737450 0.0000089023
vn 0.0000000000 0.3205757737 0.9472228885
vn 0.0000000000 0.3205758035 0.9472228885
vn 0.0000000000 0.3205757737 0.9472229481
vn 0.0000000000 0.3205758333 0.9472229481
vn 0.0000000000 0.3676121235 -0.9299792647
vn 0.0000000000 0.3676121831 -0.9299792647
vn 0.0000000000 0.3676121533 -0.9299792051
vn 0.0000000000 0.3676121533 -0.9299792647
vn -0.9999940991 0.0034582713 -0.0001030150
vn 0.9999885559 0.0048055928 -0.0000345494
vn 0.9999884963 0.0048057358 0.0000315243
vn 0.0000000000 -0.3243617117 0.9459331036
vn 0.0000000000 -0.3243617117 0.9459331632
vn 0.0000000000 -0.3243617415 0.9459331632
vn 0.0000000000 -0.3724140227 -0.9280667305
vn 0.0000000000 -0.3724140525 -0.9280667305
vn 0.0000000000 -0.3724139929 -0.9280667901
# 96 vertex normals

vt 0.9333087802 0.2287177444 0.0000000000
vt 0.9248195291 0.2136495113 0.0000000000
vt 0.9170197248 0.2167795300 0.0000000000
vt 0.9165343046 0.2289005071 0.0000000000
vt 0.9165365696 0.3182570934 0.0000000000
vt 0.9333110452 0.3182566762 0.0000000000
vt 0.9302216768 0.3134894371 0.0000000000
vt 0.9196257591 0.3136410713 0.0000000000
vt 0.9196262956 0.3332676589 0.0000000000
vt 0.9302221537 0.3333906233 0.0000000000
vt 0.9333113432 0.3285812438 0.0000000000
vt 0.9165368080 0.3288358450 0.0000000000
vt 0.9196281433 0.4071801305 0.0000000000
vt 0.9302240610 0.4071798623 0.0000000000
vt 0.9333134890 0.4123161733 0.0000000000
vt 0.9165389538 0.4123165905 0.0000000000
vt 0.9327211380 0.2167729586 0.0000000000
vt 0.9232274294 0.1993498206 0.0000000000
vt 0.9201368690 0.1942639053 0.0000000000
vt 0.9095409513 0.1942664683 0.0000000000
vt 0.9064527750 0.1991715878 0.0000000000
vt 0.9064310193 0.1098149866 0.0000000000
vt 0.9232056141 0.1098108962 0.0000000000
vt 0.9232031107 0.0994863212 0.0000000000
vt 0.9064283967 0.0992362574 0.0000000000
vt 0.9201163054 0.0946753919 0.0000000000
vt 0.9096150994 0.0947941244 0.0000000000
vt 0.9974071980 0.1012146994 0.0000000000
vt 1.0007990599 0.1012146994 0.0000000000
vt 1.0007990599 0.0274254680 0.0000000000
vt 0.9974071980 0.0274254680 0.0000000000
vt 0.9923282862 0.2025258541 0.0000000000
vt 0.9923282862 0.2136605233 0.0000000000
vt 0.9958603382 0.2135719806 0.0000000000
vt 0.9958603382 0.2024335265 0.0000000000
vt 1.0007905960 0.2205315381 0.0000000000
vt 1.0007885695 0.2085722834 0.0000000000
vt 0.9974220395 0.2085722834 0.0000000000
vt 0.9974192381 0.2205315381 0.0000000000
vt 0.9923282862 0.4128850400 0.0000000000
vt 0.9958603382 0.4129380584 0.0000000000
vt 0.9958603382 0.4008030891 0.0000000000
vt 0.9923282862 0.4007462263 0.0000000000
vt 0.9958603382 0.3151260018 0.0000000000
vt 0.9923282862 0.3150706291 0.0000000000
vt 0.9923282862 0.3949479461 0.0000000000
vt 0.9958603382 0.3950029612 0.0000000000
vt 0.9958603382 0.3095668554 0.0000000000
vt 0.9923282862 0.3095153868 0.0000000000
vt 0.9955898523 0.2935288846 0.0000000000
vt 0.9923282862 0.2935907245 0.0000000000
vt 0.9923282862 0.2989430726 0.0000000000
vt 0.9958603382 0.2989699543 0.0000000000
vt 0.9958603382 0.2935178280 0.0000000000
vt 0.9958603382 0.2195793837 0.0000000000
vt 0.9923282862 0.2196453363 0.0000000000
vt 1.0007904768 0.0102944477 0.0000000000
vt 0.9974192381 0.0102944477 0.0000000000
vt 0.9974220395 0.0214316119 0.0000000000
vt 1.0007885695 0.0214316119 0.0000000000
vt 0.9974220395 0.1069307253 0.0000000000
vt 1.0007885695 0.1069307253 0.0000000000
vt 0.9974071980 0.1229360551 0.0000000000
vt 1.0007990599 0.1229360551 0.0000000000
vt 1.0007885695 0.1172553003 0.0000000000
vt 0.9974220395 0.1172553003 0.0000000000
vt 0.9974071980 0.2026209980 0.0000000000
vt 1.0007991791 0.2026209980 0.0000000000
vt 0.9196237326 0.2338047624 0.0000000000
vt 0.9302196503 0.2338044941 0.0000000000
vt 0.9248249531 0.4261110425 0.0000000000
vt 0.9327263832 0.4234378636 0.0000000000
vt 0.9201174378 0.1145789698 0.0000000000
vt 0.9095214605 0.1144301891 0.0000000000
vt 0.9232308865 0.0157508906 0.0000000000
vt 0.9064562917 0.0157447718 0.0000000000
vt 0.9095437527 0.0208823010 0.0000000000
vt 0.9201397300 0.0208861642 0.0000000000
vt 0.9147469997 0.0019531250 0.0000000000
vt 0.9226475954 0.0046290117 0.0000000000
vt 0.9147422314 0.2144203484 0.0000000000
vt 0.9226430058 0.2112947702 0.0000000000
vt 1.0008175373 0.0019531250 0.0000000000
vt 0.9973812699 0.0019531252 0.0000000000
vt 0.9973812699 0.2290280014 0.0000000000
vt 1.0008175373 0.2290280014 0.0000000000
vt 0.9170250297 0.4234390855 0.0000000000
vt 0.9069461226 0.0046224566 0.0000000000
vt 0.9069415331 0.2112924159 0.0000000000
vt 0.9958603382 0.1941919178 0.0000000000
vt 0.9923282862 0.1942728162 0.0000000000
vt 0.9923282862 0.4212905765 0.0000000000
vt 0.9958603382 0.4213497341 0.0000000000
# 93 texture coords

o BarraDerLarga
g BarraDerLarga
usemtl 02___Default
s off
f 1/1/1 2/2/2 3/3/3 
f 3/3/3 4/4/4 1/1/1 
f 5/5/5 6/6/6 7/7/7 
f 7/7/7 8/8/8 5/5/5 
f 9/9/9 10/10/10 11/11/11 
f 11/11/11 12/12/12 9/9/9 
f 13/13/13 14/14/14 10/10/10 
f 10/10/10 9/9/9 13/13/13 
f 15/15/15 14/14/14 13/13/13 
f 13/13/13 16/16/16 15/15/15 
f 1/1/1 17/17/17 2/2/2 
f 18/18/18 19/19/19 20/20/20 
f 20/20/20 21/21/21 18/18/18 
f 22/22/22 23/23/23 24/24/24 
f 24/24/24 25/25/25 22/22/22 
f 25/25/25 24/24/24 26/26/26 
f 26/26/26 27/27/27 25/25/25 
f 26/28/28 10/29/28 14/30/28 
f 14/30/28 28/31/28 26/28/28 
f 29/32/29 16/33/29 30/34/30 
f 30/34/30 31/35/31 29/32/29 
f 17/36/32 1/37/33 18/38/33 
f 18/38/33 32/39/32 17/36/32 
f 3/40/34 33/41/35 21/42/35 
f 21/42/35 4/43/34 3/40/34 
f 34/44/36 8/45/36 35/46/36 
f 35/46/36 20/47/36 34/44/36 
f 22/48/37 5/49/37 8/45/37 
f 8/45/37 34/44/38 22/48/37 
f 36/50/39 9/51/40 12/52/41 
f 12/52/41 25/53/42 36/50/39 
f 27/54/43 36/50/39 25/53/42 
f 37/55/44 36/50/45 27/54/46 
f 30/34/47 16/33/48 13/56/47 
f 13/56/47 37/55/49 30/34/47 
f 38/57/50 39/58/50 40/59/51 
f 40/59/51 15/60/51 38/57/50 
f 24/61/52 11/62/53 10/29/52 
f 10/29/52 26/28/53 24/61/52 
f 41/63/54 7/64/55 6/65/54 
f 6/65/54 23/66/55 41/63/54 
f 19/67/28 42/68/28 7/64/28 
f 7/64/28 41/63/28 19/67/28 
f 18/38/56 1/37/57 42/68/58 
f 42/68/58 19/67/59 18/38/56 
f 35/46/60 4/43/61 21/42/60 
f 21/42/60 20/47/62 35/46/60 
f 9/51/36 36/50/45 37/55/44 
f 37/55/44 13/56/36 9/51/36 
f 14/30/63 15/60/64 40/59/64 
f 40/59/64 28/31/65 14/30/63 
f 1/1/1 4/4/4 35/69/66 
f 35/69/66 42/70/67 1/1/1 
f 42/70/67 35/69/66 8/8/8 
f 8/8/8 7/7/7 42/70/67 
f 5/5/5 12/12/12 11/11/11 
f 11/11/11 6/6/6 5/5/5 
f 15/15/15 43/71/68 38/72/69 
f 41/73/70 34/74/71 20/20/20 
f 20/20/20 19/19/19 41/73/70 
f 22/22/22 34/74/71 41/73/70 
f 41/73/70 23/23/23 22/22/22 
f 40/75/72 30/76/73 37/77/74 
f 37/77/74 28/78/75 40/75/72 
f 44/79/76 40/75/72 39/80/77 
f 18/18/18 45/81/78 32/82/79 
f 39/58/80 38/57/81 43/83/82 
f 43/83/82 44/84/83 39/58/80 
f 45/85/84 2/86/85 17/36/86 
f 17/36/86 32/39/87 45/85/84 
f 16/16/16 29/87/88 43/71/68 
f 43/71/68 15/15/15 16/16/16 
f 31/88/89 30/76/73 40/75/72 
f 40/75/72 44/79/76 31/88/89 
f 21/21/21 33/89/90 45/81/78 
f 45/81/78 18/18/18 21/21/21 
f 44/90/91 43/91/91 29/32/92 
f 29/32/92 31/35/93 44/90/91 
f 33/41/94 3/40/95 2/92/94 
f 2/92/94 45/93/96 33/41/94 
f 26/26/26 28/78/75 37/77/74 
f 37/77/74 27/27/27 26/26/26 
f 12/52/36 5/49/36 22/48/36 
f 22/48/36 25/53/36 12/52/36 
f 6/65/28 11/62/28 24/61/28 
f 24/61/28 23/66/28 6/65/28 
# 86 faces

