# 3ds Max Wavefront OBJ Exporter v0.99 - (c)2007 guruware
# File Created: 21.11.2021 13:24:20

mtllib RuedaDer5.mtl

#
# object RuedaDer5
#

v  -0.3032808304 0.1632097960 -0.6903622746
v  -0.3032957017 0.2133529186 -0.7004146576
v  -0.3170062304 0.2137692571 -0.6992845535
v  -0.3169913590 0.1632097960 -0.6891131401
v  -0.3033105731 0.2558823228 -0.7291443944
v  -0.3170805871 0.2566258907 -0.7282521725
v  -0.3033403158 0.2842849493 -0.7720901370
v  -0.3171846867 0.2852366567 -0.7716143131
v  -0.3033700585 0.2942481637 -0.8228280544
v  -0.3173036575 0.2952890396 -0.8228280544
v  -0.3033998013 0.2842849493 -0.8735066056
v  -0.3174225986 0.2852366567 -0.8739824891
v  -0.3034295440 0.2558823824 -0.9164524674
v  -0.3175266981 0.2566259503 -0.9173446298
v  -0.3034443855 0.2133529782 -0.9451821446
v  -0.3175861835 0.2137693167 -0.9463717341
v  -0.3034443855 0.1632098556 -0.9552939534
v  -0.3176159263 0.1632098556 -0.9565431476
v  -0.3034443855 0.1130667329 -0.9451821446
v  -0.3175861835 0.1126800776 -0.9463717341
v  -0.3034295440 0.0705670118 -0.9164524674
v  -0.3175266981 0.0698235035 -0.9173446298
v  -0.3033998013 0.0421644449 -0.8735066056
v  -0.3174225986 0.0412127376 -0.8739824891
v  -0.3033700585 0.0321715474 -0.8228281140
v  -0.3173036575 0.0311603546 -0.8228281140
v  -0.3033403158 0.0421644449 -0.7720901966
v  -0.3171846867 0.0412127376 -0.7716143727
v  -0.3033105731 0.0705669522 -0.7291443944
v  -0.3170805871 0.0698234439 -0.7282521725
v  -0.3032957017 0.1130666733 -0.7004146576
v  -0.3170062304 0.1126800179 -0.6992845535
v  -0.3018978834 0.1632098556 -0.8228281140
v  -0.3410071135 0.1632097960 -0.6991655827
v  -0.3410071135 0.2105572224 -0.7085636854
v  -0.3428808153 0.1632098556 -0.8228281140
v  -0.3410071135 0.2506479621 -0.7353899479
v  -0.3410071135 0.2774742842 -0.7754806280
v  -0.3410071135 0.2868723869 -0.8228280544
v  -0.3410071135 0.2774742842 -0.8701161742
v  -0.3410071135 0.2506480217 -0.9102663398
v  -0.3410071135 0.2105572820 -0.9370331168
v  -0.3410071135 0.1632098556 -0.9464907050
v  -0.3410071135 0.1158921123 -0.9370331168
v  -0.3410071135 0.0757716298 -0.9102663398
v  -0.3410071135 0.0490048528 -0.8701161742
v  -0.3410071135 0.0395472646 -0.8228281140
v  -0.3410071135 0.0490048528 -0.7754806876
v  -0.3410071135 0.0757715702 -0.7353899479
v  -0.3410071135 0.1158920527 -0.7085636854
v  -0.3218986094 0.1632097960 -0.6979164481
v  -0.3218986094 0.2109438777 -0.7073740363
v  -0.3218986094 0.2513914704 -0.7344977260
v  -0.3218986094 0.2784259915 -0.7750047445
v  -0.3218986094 0.2879430652 -0.8228280544
v  -0.3218986094 0.2784259915 -0.8705919385
v  -0.3218986094 0.2513915300 -0.9111585021
v  -0.3218986094 0.2109439373 -0.9382227063
v  -0.3218986094 0.1632098556 -0.9477397799
v  -0.3218986094 0.1155054569 -0.9382227063
v  -0.3218986094 0.0750281215 -0.9111585021
v  -0.3218986094 0.0479936600 -0.8705919385
v  -0.3218986094 0.0385360718 -0.8228281140
v  -0.3218986094 0.0479936600 -0.7750048041
v  -0.3218986094 0.0750280619 -0.7344977260
v  -0.3218986094 0.1155053973 -0.7073740363
# 66 vertices

vn 0.0893511027 -0.0000000932 0.9960002303
vn 0.0877069756 0.3853889108 0.9185765982
vn -0.3301251233 0.3622983396 0.8716405630
vn -0.3363935351 0.0000019418 0.9417214990
vn 0.0828532502 0.7096684575 0.6996471286
vn -0.3150383830 0.6721114516 0.6700872779
vn 0.0773262158 0.9232472181 0.3763446212
vn -0.2985997498 0.8821374774 0.3642413616
vn 0.0746503919 0.9972096086 -0.0006611776
vn -0.2910149395 0.9567185044 0.0002311908
vn 0.0763911679 0.9227661490 -0.3777131438
vn -0.2984333932 0.8823186159 -0.3639389277
vn 0.0818804130 0.7091791034 -0.7002575994
vn -0.3145204782 0.6728363633 -0.6696029305
vn 0.0870782211 0.3856084347 -0.9185442924
vn -0.3298594356 0.3628879189 -0.8714960217
vn 0.0886397660 0.0000002231 -0.9960638285
vn -0.3366867006 0.0000021717 -0.9416168332
vn 0.0866751298 -0.3859484494 -0.9184395671
vn -0.3299588859 -0.3627941608 -0.8714973330
vn 0.0815847367 -0.7092704177 -0.7001995444
vn -0.3141474426 -0.6729134321 -0.6697006822
vn 0.0758613646 -0.9227515459 -0.3778553009
vn -0.2982432842 -0.8823404908 -0.3640415072
vn 0.0735968724 -0.9972878695 -0.0006607707
vn -0.2915909886 -0.9565431476 0.0002286723
vn 0.0767887682 -0.9232332110 0.3764890432
vn -0.2984117568 -0.8821592927 0.3643426299
vn 0.0825455040 -0.7097608447 0.6995897293
vn -0.3146679401 -0.6721824408 0.6701902151
vn 0.0872893631 -0.3857367635 0.9184703827
vn -0.3302269876 -0.3622043431 0.8716410995
vn 0.9999455214 -0.0000000017 0.0104394909
vn 0.9999998212 -0.0000002094 -0.0006162681
vn 0.9999441504 0.0043428252 0.0096393414
vn 0.9999424815 0.0079222573 0.0072417618
vn 0.9999394417 0.0103900135 0.0036333262
vn 0.9999368191 0.0112337684 -0.0005863050
vn 0.9999344349 0.0103562484 -0.0048919502
vn 0.9999324679 0.0079384409 -0.0085006747
vn 0.9999316335 0.0043729455 -0.0108469147
vn 0.9999319315 0.0000000019 -0.0116740968
vn 0.9999316335 -0.0043738945 -0.0108465310
vn 0.9999323487 -0.0079410281 -0.0085006375
vn 0.9999343753 -0.0103573715 -0.0048953411
vn 0.9999367595 -0.0112337777 -0.0005863070
vn 0.9999394417 -0.0103911459 0.0036367329
vn 0.9999424219 -0.0079248147 0.0072417278
vn 0.9999440908 -0.0043437751 0.0096389428
vn -0.9998852611 0.0000001289 0.0151497778
vn -0.9998853803 0.0057968963 0.0139935976
vn -1.0000000000 -0.0000005583 -0.0000009204
vn -0.9998853207 0.0107128955 0.0107130529
vn -0.9998853207 0.0139935864 0.0057973452
vn -0.9998853207 0.0151496492 0.0000002654
vn -0.9998853207 0.0139960777 -0.0057979701
vn -0.9998852611 0.0107131712 -0.0107127912
vn -0.9998852611 0.0057999650 -0.0139997359
vn -0.9998852611 0.0000001355 -0.0151497796
vn -0.9998852611 -0.0058005699 -0.0140011171
vn -0.9998852611 -0.0107153095 -0.0107109332
vn -0.9998851418 -0.0140021909 -0.0058007357
vn -0.9998853207 -0.0151496129 0.0000002676
vn -0.9998852611 -0.0139997220 0.0058001052
vn -0.9998852611 -0.0107147619 0.0107112052
vn -0.9998852611 -0.0057972101 0.0139949815
vn -0.4163511395 -0.0000010473 0.9092040062
vn -0.4095377028 0.3501094282 0.8424383998
vn -0.0642509311 0.3827531636 0.9216138124
vn -0.0656794608 -0.0000006517 0.9978408217
vn -0.3917358220 0.6518437266 0.6493403316
vn -0.0602795854 0.7066868544 0.7049539089
vn -0.3738051355 0.8572136164 0.3541955650
vn -0.0565462597 0.9226418734 0.3814899921
vn -0.3673375249 0.9300873280 0.0008926028
vn -0.0553097241 0.9984693527 -0.0000006630
vn -0.3771072328 0.8565927148 -0.3521920145
vn -0.0565408990 0.9226425290 -0.3814891875
vn -0.3987801969 0.6504966617 -0.6463965178
vn -0.0602892488 0.7066881657 -0.7049518824
vn -0.4196441174 0.3489749730 -0.8379232287
vn -0.0642378777 0.3827513754 -0.9216154218
vn -0.4281829000 -0.0000006387 -0.9036921263
vn -0.0656881630 -0.0000003361 -0.9978402257
vn -0.4194140732 -0.3490234613 -0.8380182385
vn -0.0642345101 -0.3827495277 -0.9216163754
vn -0.3985708952 -0.6505819559 -0.6464397907
vn -0.0609537810 -0.7066621184 -0.7049208879
vn -0.3771876991 -0.8567209840 -0.3517937064
vn -0.0571930707 -0.9226618409 -0.3813452423
vn -0.3671065569 -0.9301785231 0.0008901119
vn -0.0553097203 -0.9984692931 -0.0000009502
vn -0.3738835454 -0.8573439717 0.3537973762
vn -0.0571974553 -0.9226613641 0.3813456297
vn -0.3915297389 -0.6519284248 0.6493795514
vn -0.0609431155 -0.7066618204 0.7049219608
vn -0.4093157947 -0.3501575291 0.8425261378
vn -0.0642485172 -0.3827522099 0.9216144085
# 98 vertex normals

vt 0.7932092547 0.2187619209 0.0000000000
vt 0.7932092547 0.2088104039 0.0000000000
vt 0.7904866338 0.2088340670 0.0000000000
vt 0.7905034423 0.2187619209 0.0000000000
vt 0.7932092547 0.1988153905 0.0000000000
vt 0.7904446721 0.1988520324 0.0000000000
vt 0.7932092547 0.1887371838 0.0000000000
vt 0.7903996706 0.1887791604 0.0000000000
vt 0.7932092547 0.1786978841 0.0000000000
vt 0.7903568745 0.1786978841 0.0000000000
vt 0.7932092547 0.3388532698 0.0000000000
vt 0.7932092547 0.3288162649 0.0000000000
vt 0.7903667688 0.3287704587 0.0000000000
vt 0.7903584242 0.3388532698 0.0000000000
vt 0.7932092547 0.3187365234 0.0000000000
vt 0.7903859019 0.3186968267 0.0000000000
vt 0.7932092547 0.3087392151 0.0000000000
vt 0.7904110551 0.3087132573 0.0000000000
vt 0.7932092547 0.2987846434 0.0000000000
vt 0.7904224992 0.2987846434 0.0000000000
vt 0.7932092547 0.2888346612 0.0000000000
vt 0.7904095650 0.2888606191 0.0000000000
vt 0.7932092547 0.2788533866 0.0000000000
vt 0.7903820872 0.2788900435 0.0000000000
vt 0.7932084799 0.2688270807 0.0000000000
vt 0.7903606892 0.2688537836 0.0000000000
vt 0.7932092547 0.2587671876 0.0000000000
vt 0.7903637290 0.2587702274 0.0000000000
vt 0.7932092547 0.2487095743 0.0000000000
vt 0.7903942466 0.2486866713 0.0000000000
vt 0.7932092547 0.2386840284 0.0000000000
vt 0.7904416323 0.2386519760 0.0000000000
vt 0.7932092547 0.2287080884 0.0000000000
vt 0.7904859185 0.2286836654 0.0000000000
vt 0.6536552906 0.3136045635 0.0000000000
vt 0.6536552906 0.2870559990 0.0000000000
vt 0.6436063051 0.3115834594 0.0000000000
vt 0.6350864768 0.3058279753 0.0000000000
vt 0.6293936372 0.2972157598 0.0000000000
vt 0.6273946762 0.2870559990 0.0000000000
vt 0.6293936372 0.2768962681 0.0000000000
vt 0.6350864768 0.2682832778 0.0000000000
vt 0.6436063051 0.2625285685 0.0000000000
vt 0.6536552906 0.2605074644 0.0000000000
vt 0.6637042761 0.2625285685 0.0000000000
vt 0.6722240448 0.2682832778 0.0000000000
vt 0.6779168844 0.2768962681 0.0000000000
vt 0.6799158454 0.2870559990 0.0000000000
vt 0.6779168844 0.2972157598 0.0000000000
vt 0.6722240448 0.3058287501 0.0000000000
vt 0.6637042761 0.3115834594 0.0000000000
vt 0.2706195414 0.3684167564 0.0000000000
vt 0.2801046669 0.3665308952 0.0000000000
vt 0.2706195414 0.3436332047 0.0000000000
vt 0.2881445885 0.3611582220 0.0000000000
vt 0.2935172319 0.3531175256 0.0000000000
vt 0.2954038978 0.3436332047 0.0000000000
vt 0.2935172319 0.3341488838 0.0000000000
vt 0.2881445885 0.3261089325 0.0000000000
vt 0.2801046669 0.3207354844 0.0000000000
vt 0.2706195414 0.3188496232 0.0000000000
vt 0.2611352205 0.3207354844 0.0000000000
vt 0.2530952692 0.3261089325 0.0000000000
vt 0.2477225810 0.3341488838 0.0000000000
vt 0.2458359897 0.3436332047 0.0000000000
vt 0.2477225810 0.3531175256 0.0000000000
vt 0.2530952692 0.3611582220 0.0000000000
vt 0.2611352205 0.3665308952 0.0000000000
vt 0.7885410786 0.2187634408 0.0000000000
vt 0.7885532975 0.2087462991 0.0000000000
vt 0.7847384810 0.2087378949 0.0000000000
vt 0.7847384810 0.2187649757 0.0000000000
vt 0.7885838151 0.1987321973 0.0000000000
vt 0.7847384810 0.1987222731 0.0000000000
vt 0.7886112928 0.1887318343 0.0000000000
vt 0.7847384810 0.1887509227 0.0000000000
vt 0.7885639668 0.1786978841 0.0000000000
vt 0.7847384810 0.1786978841 0.0000000000
vt 0.7885647416 0.3388532698 0.0000000000
vt 0.7886074781 0.3288193047 0.0000000000
vt 0.7847384810 0.3288017511 0.0000000000
vt 0.7847384810 0.3388532698 0.0000000000
vt 0.7885746360 0.3188174367 0.0000000000
vt 0.7847384810 0.3188288808 0.0000000000
vt 0.7885418534 0.3088018000 0.0000000000
vt 0.7847384810 0.3088109493 0.0000000000
vt 0.7885280848 0.2987831235 0.0000000000
vt 0.7847384810 0.2987816036 0.0000000000
vt 0.7885403037 0.2887667418 0.0000000000
vt 0.7847384810 0.2887530029 0.0000000000
vt 0.7885708809 0.2787587345 0.0000000000
vt 0.7847384810 0.2787396610 0.0000000000
vt 0.7886013985 0.2687614262 0.0000000000
vt 0.7847384810 0.2687469423 0.0000000000
vt 0.7886151075 0.2587694824 0.0000000000
vt 0.7847384810 0.2587679625 0.0000000000
vt 0.7886067033 0.2487782687 0.0000000000
vt 0.7847384810 0.2487897128 0.0000000000
vt 0.7885792255 0.2387817204 0.0000000000
vt 0.7847384810 0.2387985140 0.0000000000
vt 0.7885525227 0.2287767828 0.0000000000
vt 0.7847384810 0.2287897617 0.0000000000
# 102 texture coords

o RuedaDer5
g RuedaDer5
usemtl ESCALATREN_ESCALATREN_mso
s off
f 1/1/1 2/2/2 3/3/3 
f 3/3/3 4/4/4 1/1/1 
f 2/2/2 5/5/5 6/6/6 
f 6/6/6 3/3/3 2/2/2 
f 5/5/5 7/7/7 8/8/8 
f 8/8/8 6/6/6 5/5/5 
f 7/7/7 9/9/9 10/10/10 
f 10/10/10 8/8/8 7/7/7 
f 9/11/9 11/12/11 12/13/12 
f 12/13/12 10/14/10 9/11/9 
f 11/12/11 13/15/13 14/16/14 
f 14/16/14 12/13/12 11/12/11 
f 13/15/13 15/17/15 16/18/16 
f 16/18/16 14/16/14 13/15/13 
f 15/17/15 17/19/17 18/20/18 
f 18/20/18 16/18/16 15/17/15 
f 17/19/17 19/21/19 20/22/20 
f 20/22/20 18/20/18 17/19/17 
f 19/21/19 21/23/21 22/24/22 
f 22/24/22 20/22/20 19/21/19 
f 21/23/21 23/25/23 24/26/24 
f 24/26/24 22/24/22 21/23/21 
f 23/25/23 25/27/25 26/28/26 
f 26/28/26 24/26/24 23/25/23 
f 25/27/25 27/29/27 28/30/28 
f 28/30/28 26/28/26 25/27/25 
f 27/29/27 29/31/29 30/32/30 
f 30/32/30 28/30/28 27/29/27 
f 29/31/29 31/33/31 32/34/32 
f 32/34/32 30/32/30 29/31/29 
f 31/33/31 1/1/1 4/4/4 
f 4/4/4 32/34/32 31/33/31 
f 1/35/33 33/36/34 2/37/35 
f 2/37/35 33/36/34 5/38/36 
f 5/38/36 33/36/34 7/39/37 
f 7/39/37 33/36/34 9/40/38 
f 9/40/38 33/36/34 11/41/39 
f 11/41/39 33/36/34 13/42/40 
f 13/42/40 33/36/34 15/43/41 
f 15/43/41 33/36/34 17/44/42 
f 17/44/42 33/36/34 19/45/43 
f 19/45/43 33/36/34 21/46/44 
f 21/46/44 33/36/34 23/47/45 
f 23/47/45 33/36/34 25/48/46 
f 25/48/46 33/36/34 27/49/47 
f 27/49/47 33/36/34 29/50/48 
f 29/50/48 33/36/34 31/51/49 
f 31/51/49 33/36/34 1/35/33 
f 34/52/50 35/53/51 36/54/52 
f 35/53/51 37/55/53 36/54/52 
f 37/55/53 38/56/54 36/54/52 
f 38/56/54 39/57/55 36/54/52 
f 39/57/55 40/58/56 36/54/52 
f 40/58/56 41/59/57 36/54/52 
f 41/59/57 42/60/58 36/54/52 
f 42/60/58 43/61/59 36/54/52 
f 43/61/59 44/62/60 36/54/52 
f 44/62/60 45/63/61 36/54/52 
f 45/63/61 46/64/62 36/54/52 
f 46/64/62 47/65/63 36/54/52 
f 47/65/63 48/66/64 36/54/52 
f 48/66/64 49/67/65 36/54/52 
f 49/67/65 50/68/66 36/54/52 
f 50/68/66 34/52/50 36/54/52 
f 51/69/67 52/70/68 35/71/69 
f 35/71/69 34/72/70 51/69/67 
f 52/70/68 53/73/71 37/74/72 
f 37/74/72 35/71/69 52/70/68 
f 53/73/71 54/75/73 38/76/74 
f 38/76/74 37/74/72 53/73/71 
f 54/75/73 55/77/75 39/78/76 
f 39/78/76 38/76/74 54/75/73 
f 55/79/75 56/80/77 40/81/78 
f 40/81/78 39/82/76 55/79/75 
f 56/80/77 57/83/79 41/84/80 
f 41/84/80 40/81/78 56/80/77 
f 57/83/79 58/85/81 42/86/82 
f 42/86/82 41/84/80 57/83/79 
f 58/85/81 59/87/83 43/88/84 
f 43/88/84 42/86/82 58/85/81 
f 59/87/83 60/89/85 44/90/86 
f 44/90/86 43/88/84 59/87/83 
f 60/89/85 61/91/87 45/92/88 
f 45/92/88 44/90/86 60/89/85 
f 61/91/87 62/93/89 46/94/90 
f 46/94/90 45/92/88 61/91/87 
f 62/93/89 63/95/91 47/96/92 
f 47/96/92 46/94/90 62/93/89 
f 63/95/91 64/97/93 48/98/94 
f 48/98/94 47/96/92 63/95/91 
f 64/97/93 65/99/95 49/100/96 
f 49/100/96 48/98/94 64/97/93 
f 65/99/95 66/101/97 50/102/98 
f 50/102/98 49/100/96 65/99/95 
f 66/101/97 51/69/67 34/72/70 
f 34/72/70 50/102/98 66/101/97 
f 51/69/67 4/4/4 3/3/3 
f 3/3/3 52/70/68 51/69/67 
f 66/101/97 32/34/32 4/4/4 
f 4/4/4 51/69/67 66/101/97 
f 65/99/95 30/32/30 32/34/32 
f 32/34/32 66/101/97 65/99/95 
f 64/97/93 28/30/28 30/32/30 
f 30/32/30 65/99/95 64/97/93 
f 63/95/91 26/28/26 28/30/28 
f 28/30/28 64/97/93 63/95/91 
f 62/93/89 24/26/24 26/28/26 
f 26/28/26 63/95/91 62/93/89 
f 61/91/87 22/24/22 24/26/24 
f 24/26/24 62/93/89 61/91/87 
f 60/89/85 20/22/20 22/24/22 
f 22/24/22 61/91/87 60/89/85 
f 59/87/83 18/20/18 20/22/20 
f 20/22/20 60/89/85 59/87/83 
f 58/85/81 16/18/16 18/20/18 
f 18/20/18 59/87/83 58/85/81 
f 57/83/79 14/16/14 16/18/16 
f 16/18/16 58/85/81 57/83/79 
f 56/80/77 12/13/12 14/16/14 
f 14/16/14 57/83/79 56/80/77 
f 55/79/75 10/14/10 12/13/12 
f 12/13/12 56/80/77 55/79/75 
f 54/75/73 8/8/8 10/10/10 
f 10/10/10 55/77/75 54/75/73 
f 53/73/71 6/6/6 8/8/8 
f 8/8/8 54/75/73 53/73/71 
f 52/70/68 3/3/3 6/6/6 
f 6/6/6 53/73/71 52/70/68 
# 128 faces

