# 3ds Max Wavefront OBJ Exporter v0.99 - (c)2007 guruware
# File Created: 21.11.2021 13:23:10

mtllib RuedaIzq7.mtl

#
# object RuedaIzq7
#

v  0.2920126319 0.1632098556 -1.4235379696
v  0.3057231605 0.1632098556 -1.4222888947
v  0.3057380319 0.2137693167 -1.4324601889
v  0.2920275033 0.2133529782 -1.4335904121
v  0.3058123887 0.2566259503 -1.4614278078
v  0.2920423746 0.2558823824 -1.4623200893
v  0.3059164882 0.2852367163 -1.5047900677
v  0.2920721173 0.2842850089 -1.5052658319
v  0.3060354590 0.2952890992 -1.5560038090
v  0.2921018600 0.2942482233 -1.5560038090
v  0.3061544001 0.2852367163 -1.6071581841
v  0.2921316028 0.2842850089 -1.6066823006
v  0.3062584996 0.2566260099 -1.6505203247
v  0.2921613455 0.2558824420 -1.6496281624
v  0.3063179851 0.2137693763 -1.6795474291
v  0.2921761870 0.2133530378 -1.6783578396
v  0.3063477278 0.1632099152 -1.6897188425
v  0.2921761870 0.1632099152 -1.6884696484
v  0.3063179851 0.1126801372 -1.6795474291
v  0.2921761870 0.1130667925 -1.6783578396
v  0.3062584996 0.0698235631 -1.6505203247
v  0.2921613455 0.0705670714 -1.6496281624
v  0.3061544001 0.0412127972 -1.6071581841
v  0.2921316028 0.0421645045 -1.6066823006
v  0.3060354590 0.0311604142 -1.5560038090
v  0.2921018600 0.0321716070 -1.5560038090
v  0.3059164882 0.0412127972 -1.5047900677
v  0.2920721173 0.0421645045 -1.5052658319
v  0.3058123887 0.0698235035 -1.4614278078
v  0.2920423746 0.0705670118 -1.4623200893
v  0.3057380319 0.1126800776 -1.4324601889
v  0.2920275033 0.1130667329 -1.4335904121
v  0.2906296849 0.1632099152 -1.5560038090
v  0.3297389150 0.1632098556 -1.4323412180
v  0.3316126168 0.1632099152 -1.5560038090
v  0.3297389150 0.2105572820 -1.4417393208
v  0.3297389150 0.2506480217 -1.4685657024
v  0.3297389150 0.2774743438 -1.5086563826
v  0.3297389150 0.2868724465 -1.5560038090
v  0.3297389150 0.2774743438 -1.6032918692
v  0.3297389150 0.2506480813 -1.6434420347
v  0.3297389150 0.2105573416 -1.6702088118
v  0.3297389150 0.1632099152 -1.6796664000
v  0.3297389150 0.1158921719 -1.6702088118
v  0.3297389150 0.0757716894 -1.6434420347
v  0.3297389150 0.0490049124 -1.6032918692
v  0.3297389150 0.0395473242 -1.5560038090
v  0.3297389150 0.0490049124 -1.5086563826
v  0.3297389150 0.0757716298 -1.4685657024
v  0.3297389150 0.1158921123 -1.4417393208
v  0.3106304109 0.1632098556 -1.4310921431
v  0.3106304109 0.2109439373 -1.4405497313
v  0.3106304109 0.2513915300 -1.4676734209
v  0.3106304109 0.2784260511 -1.5081804991
v  0.3106304109 0.2879431248 -1.5560038090
v  0.3106304109 0.2784260511 -1.6037676334
v  0.3106304109 0.2513915896 -1.6443341970
v  0.3106304109 0.2109439969 -1.6713984013
v  0.3106304109 0.1632099152 -1.6809154749
v  0.3106304109 0.1155055165 -1.6713984013
v  0.3106304109 0.0750281811 -1.6443341970
v  0.3106304109 0.0479937196 -1.6037676334
v  0.3106304109 0.0385361314 -1.5560038090
v  0.3106304109 0.0479937196 -1.5081804991
v  0.3106304109 0.0750281215 -1.4676734209
v  0.3106304109 0.1155054569 -1.4405497313
# 66 vertices

vn -0.0893441364 -0.0000001246 0.9960008264
vn 0.3363968730 0.0000019626 0.9417204261
vn 0.3301272392 0.3622979522 0.8716400266
vn -0.0877031386 0.3853888810 0.9185770154
vn 0.3150436580 0.6721101403 0.6700861454
vn -0.0828475729 0.7096687555 0.6996475458
vn 0.2986050844 0.8821359277 0.3642407656
vn -0.0773212463 0.9232476354 0.3763447702
vn 0.2910157144 0.9567183256 0.0002311607
vn -0.0746497661 0.9972096086 -0.0006611714
vn 0.2984320521 0.8823190331 -0.3639390469
vn -0.0763936117 0.9227659106 -0.3777129650
vn 0.3145175576 0.6728371978 -0.6696035266
vn -0.0818883926 0.7091787457 -0.7002570629
vn 0.3298552036 0.3628886640 -0.8714972734
vn -0.0870837867 0.3856084645 -0.9185438156
vn 0.3366840780 0.0000020161 -0.9416176677
vn -0.0886397585 0.0000001258 -0.9960637689
vn 0.3299601078 -0.3627940416 -0.8714969158
vn -0.0866776183 -0.3859483600 -0.9184394479
vn 0.3141473234 -0.6729136705 -0.6697004437
vn -0.0815890506 -0.7092704773 -0.7001990080
vn 0.2982417047 -0.8823409081 -0.3640417159
vn -0.0758632198 -0.9227514863 -0.3778550327
vn 0.2915910184 -0.9565431476 0.0002286421
vn -0.0735968724 -0.9972878695 -0.0006607646
vn 0.2984141707 -0.8821583986 0.3643426299
vn -0.0767850131 -0.9232332110 0.3764899075
vn 0.3146672845 -0.6721822023 0.6701908112
vn -0.0825460330 -0.7097602487 0.6995903254
vn 0.3302257359 -0.3622046113 0.8716414571
vn -0.0872894004 -0.3857367337 0.9184704423
vn -0.9999455214 -0.0000000017 0.0104394909
vn -0.9999441504 0.0043430161 0.0096393209
vn -0.9999998212 -0.0000002434 -0.0006162663
vn -0.9999424815 0.0079225134 0.0072417543
vn -0.9999395013 0.0103900321 0.0036333306
vn -0.9999368191 0.0112337554 -0.0005863035
vn -0.9999344349 0.0103562251 -0.0048919371
vn -0.9999324679 0.0079384279 -0.0085006626
vn -0.9999316931 0.0043726759 -0.0108469101
vn -0.9999319315 -0.0000005307 -0.0116741108
vn -0.9999316335 -0.0043741614 -0.0108465319
vn -0.9999323487 -0.0079410402 -0.0085006431
vn -0.9999343753 -0.0103573659 -0.0048953425
vn -0.9999367595 -0.0112337535 -0.0005863058
vn -0.9999394417 -0.0103911534 0.0036367353
vn -0.9999423623 -0.0079248240 0.0072417404
vn -0.9999441504 -0.0043437127 0.0096389484
vn 0.9998852611 0.0000001289 0.0151497778
vn 1.0000000000 -0.0000005297 -0.0000009209
vn 0.9998853803 0.0057973452 0.0139935892
vn 0.9998852611 0.0107130595 0.0107130660
vn 0.9998853803 0.0139936171 0.0057973624
vn 0.9998853207 0.0151496232 0.0000002618
vn 0.9998852611 0.0139961801 -0.0057979529
vn 0.9998853207 0.0107133100 -0.0107127782
vn 0.9998852611 0.0058001159 -0.0139997359
vn 0.9998852611 0.0000001356 -0.0151497796
vn 0.9998852611 -0.0058004227 -0.0140011366
vn 0.9998853207 -0.0107151745 -0.0107109435
vn 0.9998851418 -0.0140023269 -0.0058007254
vn 0.9998853207 -0.0151496259 0.0000002630
vn 0.9998852015 -0.0139997574 0.0058001229
vn 0.9998852611 -0.0107149081 0.0107111987
vn 0.9998852611 -0.0057976563 0.0139949648
vn 0.4163500965 -0.0000010027 0.9092044830
vn 0.0656794608 -0.0000006517 0.9978408217
vn 0.0642509311 0.3827535510 0.9216136336
vn 0.4095374644 0.3501098156 0.8424382806
vn 0.0602771305 0.7066873908 0.7049536109
vn 0.3917358816 0.6518438458 0.6493400931
vn 0.0565438382 0.9226420522 0.3814899623
vn 0.3738052845 0.8572136760 0.3541955650
vn 0.0553097241 0.9984693527 -0.0000006438
vn 0.3673378527 0.9300872087 0.0008925780
vn 0.0565418862 0.9226423502 -0.3814893365
vn 0.3771082461 0.8565922976 -0.3521919549
vn 0.0602888055 0.7066877484 -0.7049523592
vn 0.3987820148 0.6504960060 -0.6463961601
vn 0.0642393231 0.3827512264 -0.9216154218
vn 0.4196448028 0.3489747345 -0.8379229307
vn 0.0656949431 -0.0000003073 -0.9978397489
vn 0.4281846881 -0.0000006789 -0.9036912322
vn 0.0642393380 -0.3827494085 -0.9216161370
vn 0.4194196165 -0.3490225375 -0.8380158544
vn 0.0609552339 -0.7066619396 -0.7049208879
vn 0.3985738158 -0.6505810618 -0.6464388371
vn 0.0571935736 -0.9226617217 -0.3813453317
vn 0.3771877289 -0.8567208052 -0.3517939746
vn 0.0553097203 -0.9984692931 -0.0000009502
vn 0.3671065569 -0.9301785827 0.0008900781
vn 0.0571955144 -0.9226614237 0.3813455701
vn 0.3738822639 -0.8573445082 0.3537973762
vn 0.0609435700 -0.7066619396 0.7049217820
vn 0.3915297985 -0.6519286036 0.6493794322
vn 0.0642509386 -0.3827523589 0.9216141701
vn 0.4093161225 -0.3501576781 0.8425260186
# 98 vertex normals

vt 0.7932092547 0.2187619209 0.0000000000
vt 0.7905034423 0.2187619209 0.0000000000
vt 0.7904866338 0.2088340670 0.0000000000
vt 0.7932092547 0.2088104039 0.0000000000
vt 0.7904446721 0.1988520324 0.0000000000
vt 0.7932092547 0.1988153905 0.0000000000
vt 0.7903996706 0.1887791604 0.0000000000
vt 0.7932092547 0.1887371838 0.0000000000
vt 0.7903568745 0.1786978841 0.0000000000
vt 0.7932092547 0.1786978841 0.0000000000
vt 0.7932092547 0.3388532698 0.0000000000
vt 0.7903584242 0.3388532698 0.0000000000
vt 0.7903667688 0.3287704587 0.0000000000
vt 0.7932092547 0.3288162649 0.0000000000
vt 0.7903859019 0.3186968267 0.0000000000
vt 0.7932092547 0.3187365234 0.0000000000
vt 0.7904110551 0.3087132573 0.0000000000
vt 0.7932092547 0.3087392151 0.0000000000
vt 0.7904224992 0.2987846434 0.0000000000
vt 0.7932092547 0.2987846434 0.0000000000
vt 0.7904095650 0.2888606191 0.0000000000
vt 0.7932092547 0.2888346612 0.0000000000
vt 0.7903820872 0.2788900435 0.0000000000
vt 0.7932092547 0.2788533866 0.0000000000
vt 0.7903606892 0.2688537836 0.0000000000
vt 0.7932084799 0.2688270807 0.0000000000
vt 0.7903637290 0.2587702274 0.0000000000
vt 0.7932092547 0.2587671876 0.0000000000
vt 0.7903942466 0.2486866713 0.0000000000
vt 0.7932092547 0.2487095743 0.0000000000
vt 0.7904416323 0.2386519760 0.0000000000
vt 0.7932092547 0.2386840284 0.0000000000
vt 0.7904859185 0.2286836654 0.0000000000
vt 0.7932092547 0.2287080884 0.0000000000
vt 0.6536552906 0.3136045635 0.0000000000
vt 0.6436063051 0.3115834594 0.0000000000
vt 0.6536552906 0.2870559990 0.0000000000
vt 0.6350864768 0.3058279753 0.0000000000
vt 0.6293936372 0.2972157598 0.0000000000
vt 0.6273946762 0.2870559990 0.0000000000
vt 0.6293936372 0.2768962681 0.0000000000
vt 0.6350864768 0.2682832778 0.0000000000
vt 0.6436063051 0.2625285685 0.0000000000
vt 0.6536552906 0.2605074644 0.0000000000
vt 0.6637042761 0.2625285685 0.0000000000
vt 0.6722240448 0.2682832778 0.0000000000
vt 0.6779168844 0.2768962681 0.0000000000
vt 0.6799158454 0.2870559990 0.0000000000
vt 0.6779168844 0.2972157598 0.0000000000
vt 0.6722240448 0.3058287501 0.0000000000
vt 0.6637042761 0.3115834594 0.0000000000
vt 0.2706195414 0.3684167564 0.0000000000
vt 0.2706195414 0.3436332047 0.0000000000
vt 0.2801046669 0.3665308952 0.0000000000
vt 0.2881445885 0.3611582220 0.0000000000
vt 0.2935172319 0.3531175256 0.0000000000
vt 0.2954038978 0.3436332047 0.0000000000
vt 0.2935172319 0.3341488838 0.0000000000
vt 0.2881445885 0.3261089325 0.0000000000
vt 0.2801046669 0.3207354844 0.0000000000
vt 0.2706195414 0.3188496232 0.0000000000
vt 0.2611352205 0.3207354844 0.0000000000
vt 0.2530952692 0.3261089325 0.0000000000
vt 0.2477225810 0.3341488838 0.0000000000
vt 0.2458359897 0.3436332047 0.0000000000
vt 0.2477225810 0.3531175256 0.0000000000
vt 0.2530952692 0.3611582220 0.0000000000
vt 0.2611352205 0.3665308952 0.0000000000
vt 0.7885410786 0.2187634408 0.0000000000
vt 0.7847384810 0.2187649757 0.0000000000
vt 0.7847384810 0.2087378949 0.0000000000
vt 0.7885532975 0.2087462991 0.0000000000
vt 0.7847384810 0.1987222731 0.0000000000
vt 0.7885838151 0.1987321973 0.0000000000
vt 0.7847384810 0.1887509227 0.0000000000
vt 0.7886112928 0.1887318343 0.0000000000
vt 0.7847384810 0.1786978841 0.0000000000
vt 0.7885639668 0.1786978841 0.0000000000
vt 0.7885647416 0.3388532698 0.0000000000
vt 0.7847384810 0.3388532698 0.0000000000
vt 0.7847384810 0.3288017511 0.0000000000
vt 0.7886074781 0.3288193047 0.0000000000
vt 0.7847384810 0.3188288808 0.0000000000
vt 0.7885746360 0.3188174367 0.0000000000
vt 0.7847384810 0.3088109493 0.0000000000
vt 0.7885418534 0.3088018000 0.0000000000
vt 0.7847384810 0.2987816036 0.0000000000
vt 0.7885280848 0.2987831235 0.0000000000
vt 0.7847384810 0.2887530029 0.0000000000
vt 0.7885403037 0.2887667418 0.0000000000
vt 0.7847384810 0.2787396610 0.0000000000
vt 0.7885708809 0.2787587345 0.0000000000
vt 0.7847384810 0.2687469423 0.0000000000
vt 0.7886013985 0.2687614262 0.0000000000
vt 0.7847384810 0.2587679625 0.0000000000
vt 0.7886151075 0.2587694824 0.0000000000
vt 0.7847384810 0.2487897128 0.0000000000
vt 0.7886067033 0.2487782687 0.0000000000
vt 0.7847384810 0.2387985140 0.0000000000
vt 0.7885792255 0.2387817204 0.0000000000
vt 0.7847384810 0.2287897617 0.0000000000
vt 0.7885525227 0.2287767828 0.0000000000
# 102 texture coords

o RuedaIzq7
g RuedaIzq7
usemtl ESCALATREN_ESCALATREN_mso
s off
f 1/1/1 2/2/2 3/3/3 
f 3/3/3 4/4/4 1/1/1 
f 4/4/4 3/3/3 5/5/5 
f 5/5/5 6/6/6 4/4/4 
f 6/6/6 5/5/5 7/7/7 
f 7/7/7 8/8/8 6/6/6 
f 8/8/8 7/7/7 9/9/9 
f 9/9/9 10/10/10 8/8/8 
f 10/11/10 9/12/9 11/13/11 
f 11/13/11 12/14/12 10/11/10 
f 12/14/12 11/13/11 13/15/13 
f 13/15/13 14/16/14 12/14/12 
f 14/16/14 13/15/13 15/17/15 
f 15/17/15 16/18/16 14/16/14 
f 16/18/16 15/17/15 17/19/17 
f 17/19/17 18/20/18 16/18/16 
f 18/20/18 17/19/17 19/21/19 
f 19/21/19 20/22/20 18/20/18 
f 20/22/20 19/21/19 21/23/21 
f 21/23/21 22/24/22 20/22/20 
f 22/24/22 21/23/21 23/25/23 
f 23/25/23 24/26/24 22/24/22 
f 24/26/24 23/25/23 25/27/25 
f 25/27/25 26/28/26 24/26/24 
f 26/28/26 25/27/25 27/29/27 
f 27/29/27 28/30/28 26/28/26 
f 28/30/28 27/29/27 29/31/29 
f 29/31/29 30/32/30 28/30/28 
f 30/32/30 29/31/29 31/33/31 
f 31/33/31 32/34/32 30/32/30 
f 32/34/32 31/33/31 2/2/2 
f 2/2/2 1/1/1 32/34/32 
f 1/35/33 4/36/34 33/37/35 
f 4/36/34 6/38/36 33/37/35 
f 6/38/36 8/39/37 33/37/35 
f 8/39/37 10/40/38 33/37/35 
f 10/40/38 12/41/39 33/37/35 
f 12/41/39 14/42/40 33/37/35 
f 14/42/40 16/43/41 33/37/35 
f 16/43/41 18/44/42 33/37/35 
f 18/44/42 20/45/43 33/37/35 
f 20/45/43 22/46/44 33/37/35 
f 22/46/44 24/47/45 33/37/35 
f 24/47/45 26/48/46 33/37/35 
f 26/48/46 28/49/47 33/37/35 
f 28/49/47 30/50/48 33/37/35 
f 30/50/48 32/51/49 33/37/35 
f 32/51/49 1/35/33 33/37/35 
f 34/52/50 35/53/51 36/54/52 
f 36/54/52 35/53/51 37/55/53 
f 37/55/53 35/53/51 38/56/54 
f 38/56/54 35/53/51 39/57/55 
f 39/57/55 35/53/51 40/58/56 
f 40/58/56 35/53/51 41/59/57 
f 41/59/57 35/53/51 42/60/58 
f 42/60/58 35/53/51 43/61/59 
f 43/61/59 35/53/51 44/62/60 
f 44/62/60 35/53/51 45/63/61 
f 45/63/61 35/53/51 46/64/62 
f 46/64/62 35/53/51 47/65/63 
f 47/65/63 35/53/51 48/66/64 
f 48/66/64 35/53/51 49/67/65 
f 49/67/65 35/53/51 50/68/66 
f 50/68/66 35/53/51 34/52/50 
f 51/69/67 34/70/68 36/71/69 
f 36/71/69 52/72/70 51/69/67 
f 52/72/70 36/71/69 37/73/71 
f 37/73/71 53/74/72 52/72/70 
f 53/74/72 37/73/71 38/75/73 
f 38/75/73 54/76/74 53/74/72 
f 54/76/74 38/75/73 39/77/75 
f 39/77/75 55/78/76 54/76/74 
f 55/79/76 39/80/75 40/81/77 
f 40/81/77 56/82/78 55/79/76 
f 56/82/78 40/81/77 41/83/79 
f 41/83/79 57/84/80 56/82/78 
f 57/84/80 41/83/79 42/85/81 
f 42/85/81 58/86/82 57/84/80 
f 58/86/82 42/85/81 43/87/83 
f 43/87/83 59/88/84 58/86/82 
f 59/88/84 43/87/83 44/89/85 
f 44/89/85 60/90/86 59/88/84 
f 60/90/86 44/89/85 45/91/87 
f 45/91/87 61/92/88 60/90/86 
f 61/92/88 45/91/87 46/93/89 
f 46/93/89 62/94/90 61/92/88 
f 62/94/90 46/93/89 47/95/91 
f 47/95/91 63/96/92 62/94/90 
f 63/96/92 47/95/91 48/97/93 
f 48/97/93 64/98/94 63/96/92 
f 64/98/94 48/97/93 49/99/95 
f 49/99/95 65/100/96 64/98/94 
f 65/100/96 49/99/95 50/101/97 
f 50/101/97 66/102/98 65/100/96 
f 66/102/98 50/101/97 34/70/68 
f 34/70/68 51/69/67 66/102/98 
f 51/69/67 52/72/70 3/3/3 
f 3/3/3 2/2/2 51/69/67 
f 66/102/98 51/69/67 2/2/2 
f 2/2/2 31/33/31 66/102/98 
f 65/100/96 66/102/98 31/33/31 
f 31/33/31 29/31/29 65/100/96 
f 64/98/94 65/100/96 29/31/29 
f 29/31/29 27/29/27 64/98/94 
f 63/96/92 64/98/94 27/29/27 
f 27/29/27 25/27/25 63/96/92 
f 62/94/90 63/96/92 25/27/25 
f 25/27/25 23/25/23 62/94/90 
f 61/92/88 62/94/90 23/25/23 
f 23/25/23 21/23/21 61/92/88 
f 60/90/86 61/92/88 21/23/21 
f 21/23/21 19/21/19 60/90/86 
f 59/88/84 60/90/86 19/21/19 
f 19/21/19 17/19/17 59/88/84 
f 58/86/82 59/88/84 17/19/17 
f 17/19/17 15/17/15 58/86/82 
f 57/84/80 58/86/82 15/17/15 
f 15/17/15 13/15/13 57/84/80 
f 56/82/78 57/84/80 13/15/13 
f 13/15/13 11/13/11 56/82/78 
f 55/79/76 56/82/78 11/13/11 
f 11/13/11 9/12/9 55/79/76 
f 54/76/74 55/78/76 9/9/9 
f 9/9/9 7/7/7 54/76/74 
f 53/74/72 54/76/74 7/7/7 
f 7/7/7 5/5/5 53/74/72 
f 52/72/70 53/74/72 5/5/5 
f 5/5/5 3/3/3 52/72/70 
# 128 faces

