# 3ds Max Wavefront OBJ Exporter v0.99 - (c)2007 guruware
# File Created: 21.11.2021 13:22:40

mtllib RuedaIzq5.mtl

#
# object RuedaIzq5
#

v  0.2920126319 0.1632097363 -0.6903641224
v  0.3057231605 0.1632097363 -0.6891149879
v  0.3057380319 0.2137691975 -0.6992864013
v  0.2920275033 0.2133528590 -0.7004165053
v  0.3058123887 0.2566258311 -0.7282540202
v  0.2920423746 0.2558822632 -0.7291462421
v  0.3059164882 0.2852365971 -0.7716161609
v  0.2920721173 0.2842848897 -0.7720919847
v  0.3060354590 0.2952889800 -0.8228299022
v  0.2921018600 0.2942481041 -0.8228299022
v  0.3061544001 0.2852365971 -0.8739843369
v  0.2921316028 0.2842848897 -0.8735084534
v  0.3062584996 0.2566258907 -0.9173464775
v  0.2921613455 0.2558823228 -0.9164543152
v  0.3063179851 0.2137692571 -0.9463735819
v  0.2921761870 0.2133529186 -0.9451839924
v  0.3063477278 0.1632097960 -0.9565449953
v  0.2921761870 0.1632097960 -0.9552958012
v  0.3063179851 0.1126800179 -0.9463735819
v  0.2921761870 0.1130666733 -0.9451839924
v  0.3062584996 0.0698234439 -0.9173464775
v  0.2921613455 0.0705669522 -0.9164543152
v  0.3061544001 0.0412126780 -0.8739843369
v  0.2921316028 0.0421643853 -0.8735084534
v  0.3060354590 0.0311602950 -0.8228299618
v  0.2921018600 0.0321714878 -0.8228299618
v  0.3059164882 0.0412126780 -0.7716162205
v  0.2920721173 0.0421643853 -0.7720920444
v  0.3058123887 0.0698233843 -0.7282540202
v  0.2920423746 0.0705668926 -0.7291462421
v  0.3057380319 0.1126799583 -0.6992864013
v  0.2920275033 0.1130666137 -0.7004165053
v  0.2906296849 0.1632097960 -0.8228299618
v  0.3297389150 0.1632097363 -0.6991674304
v  0.3316126168 0.1632097960 -0.8228299618
v  0.3297389150 0.2105571628 -0.7085655332
v  0.3297389150 0.2506479025 -0.7353917956
v  0.3297389150 0.2774742246 -0.7754824758
v  0.3297389150 0.2868723273 -0.8228299022
v  0.3297389150 0.2774742246 -0.8701180220
v  0.3297389150 0.2506479621 -0.9102681875
v  0.3297389150 0.2105572224 -0.9370349646
v  0.3297389150 0.1632097960 -0.9464925528
v  0.3297389150 0.1158920527 -0.9370349646
v  0.3297389150 0.0757715702 -0.9102681875
v  0.3297389150 0.0490047932 -0.8701180220
v  0.3297389150 0.0395472050 -0.8228299618
v  0.3297389150 0.0490047932 -0.7754825354
v  0.3297389150 0.0757715106 -0.7353917956
v  0.3297389150 0.1158919930 -0.7085655332
v  0.3106304109 0.1632097363 -0.6979182959
v  0.3106304109 0.2109438181 -0.7073758841
v  0.3106304109 0.2513914108 -0.7344995737
v  0.3106304109 0.2784259319 -0.7750065923
v  0.3106304109 0.2879430056 -0.8228299022
v  0.3106304109 0.2784259319 -0.8705937862
v  0.3106304109 0.2513914704 -0.9111603498
v  0.3106304109 0.2109438777 -0.9382245541
v  0.3106304109 0.1632097960 -0.9477416277
v  0.3106304109 0.1155053973 -0.9382245541
v  0.3106304109 0.0750280619 -0.9111603498
v  0.3106304109 0.0479936004 -0.8705937862
v  0.3106304109 0.0385360122 -0.8228299618
v  0.3106304109 0.0479936004 -0.7750066519
v  0.3106304109 0.0750280023 -0.7344995737
v  0.3106304109 0.1155053377 -0.7073758841
# 66 vertices

vn -0.0893542767 -0.0000001937 0.9959999323
vn 0.3363915980 0.0000018772 0.9417222142
vn 0.3301226795 0.3622985780 0.8716414571
vn -0.0877107233 0.3853886425 0.9185764194
vn 0.3150379956 0.6721114516 0.6700875759
vn -0.0828538463 0.7096683383 0.6996471286
vn 0.2986004651 0.8821372390 0.3642412722
vn -0.0773256049 0.9232473373 0.3763447106
vn 0.2910152972 0.9567183852 0.0002311514
vn -0.0746503919 0.9972096086 -0.0006611776
vn 0.2984331846 0.8823186755 -0.3639389277
vn -0.0763911605 0.9227661490 -0.3777131140
vn 0.3145195842 0.6728368402 -0.6696029902
vn -0.0818810388 0.7091791630 -0.7002574205
vn 0.3298586607 0.3628880680 -0.8714961410
vn -0.0870788693 0.3856085837 -0.9185441732
vn 0.3366867602 0.0000021253 -0.9416167736
vn -0.0886397660 0.0000001623 -0.9960638285
vn 0.3299592733 -0.3627941012 -0.8714972734
vn -0.0866751522 -0.3859484196 -0.9184395075
vn 0.3141480684 -0.6729135513 -0.6697002053
vn -0.0815841407 -0.7092707753 -0.7001992464
vn 0.2982438803 -0.8823404312 -0.3640414476
vn -0.0758607760 -0.9227517247 -0.3778551519
vn 0.2915911973 -0.9565430880 0.0002286700
vn -0.0735968724 -0.9972878695 -0.0006607707
vn 0.2984123230 -0.8821588755 0.3643429577
vn -0.0767887384 -0.9232329130 0.3764897585
vn 0.3146689832 -0.6721817851 0.6701903343
vn -0.0825448111 -0.7097602487 0.6995904446
vn 0.3302271962 -0.3622042537 0.8716410398
vn -0.0872893631 -0.3857367337 0.9184703231
vn -0.9999455214 -0.0000000017 0.0104394909
vn -0.9999441504 0.0043430231 0.0096393414
vn -0.9999998212 -0.0000002413 -0.0006162669
vn -0.9999424815 0.0079225227 0.0072417599
vn -0.9999394417 0.0103900190 0.0036333262
vn -0.9999368191 0.0112337796 -0.0005863046
vn -0.9999344349 0.0103562465 -0.0048919474
vn -0.9999324679 0.0079384362 -0.0085006710
vn -0.9999316335 0.0043726778 -0.0108469147
vn -0.9999319315 -0.0000005307 -0.0116740968
vn -0.9999316335 -0.0043741623 -0.0108465310
vn -0.9999323487 -0.0079410234 -0.0085006338
vn -0.9999343753 -0.0103573659 -0.0048953374
vn -0.9999367595 -0.0112337777 -0.0005863070
vn -0.9999394417 -0.0103911422 0.0036367315
vn -0.9999423623 -0.0079248166 0.0072417320
vn -0.9999440908 -0.0043437113 0.0096389484
vn 0.9998852611 0.0000001289 0.0151497778
vn 1.0000000000 -0.0000005250 -0.0000009204
vn 0.9998853803 0.0057973503 0.0139935976
vn 0.9998852015 0.0107130464 0.0107130520
vn 0.9998853207 0.0139935864 0.0057973452
vn 0.9998853207 0.0151496390 0.0000002673
vn 0.9998853207 0.0139962165 -0.0057979655
vn 0.9998852611 0.0107133174 -0.0107127875
vn 0.9998852611 0.0058001159 -0.0139997359
vn 0.9998852611 0.0000001356 -0.0151497796
vn 0.9998852611 -0.0058004186 -0.0140011171
vn 0.9998852611 -0.0107151670 -0.0107109379
vn 0.9998851418 -0.0140023557 -0.0058007417
vn 0.9998853207 -0.0151496259 0.0000002684
vn 0.9998852611 -0.0139997313 0.0058001066
vn 0.9998852611 -0.0107149128 0.0107112052
vn 0.9998852611 -0.0057976632 0.0139949815
vn 0.4163511395 -0.0000010473 0.9092040062
vn 0.0656794608 -0.0000006517 0.9978408217
vn 0.0642509237 0.3827535808 0.9216135144
vn 0.4095377028 0.3501097560 0.8424382210
vn 0.0602790788 0.7066873312 0.7049536109
vn 0.3917355537 0.6518440247 0.6493402123
vn 0.0565457679 0.9226419330 0.3814899027
vn 0.3738051951 0.8572137356 0.3541955352
vn 0.0553097241 0.9984693527 -0.0000006630
vn 0.3673378527 0.9300871491 0.0008925674
vn 0.0565409213 0.9226424694 -0.3814893961
vn 0.3771070540 0.8565926552 -0.3521921039
vn 0.0602878332 0.7066877484 -0.7049524188
vn 0.3987789452 0.6504969001 -0.6463970542
vn 0.0642354637 0.3827512860 -0.9216156602
vn 0.4196423292 0.3489750624 -0.8379240632
vn 0.0656871870 -0.0000003457 -0.9978402853
vn 0.4281823635 -0.0000006299 -0.9036924243
vn 0.0642354786 -0.3827494681 -0.9216163754
vn 0.4194149375 -0.3490232527 -0.8380178809
vn 0.0609542616 -0.7066619992 -0.7049208879
vn 0.3985713422 -0.6505818963 -0.6464396119
vn 0.0571925975 -0.9226617217 -0.3813453317
vn 0.3771875203 -0.8567208052 -0.3517939746
vn 0.0553097203 -0.9984692931 -0.0000009502
vn 0.3671067059 -0.9301784039 0.0008901100
vn 0.0571974590 -0.9226613641 0.3813456297
vn 0.3738839924 -0.8573438525 0.3537971377
vn 0.0609435886 -0.7066619396 0.7049218416
vn 0.3915306330 -0.6519284248 0.6493791342
vn 0.0642489865 -0.3827523291 0.9216142297
vn 0.4093163013 -0.3501575589 0.8425258994
# 98 vertex normals

vt 0.7932092547 0.2187619209 0.0000000000
vt 0.7905034423 0.2187619209 0.0000000000
vt 0.7904866338 0.2088340670 0.0000000000
vt 0.7932092547 0.2088104039 0.0000000000
vt 0.7904446721 0.1988520324 0.0000000000
vt 0.7932092547 0.1988153905 0.0000000000
vt 0.7903996706 0.1887791604 0.0000000000
vt 0.7932092547 0.1887371838 0.0000000000
vt 0.7903568745 0.1786978841 0.0000000000
vt 0.7932092547 0.1786978841 0.0000000000
vt 0.7932092547 0.3388532698 0.0000000000
vt 0.7903584242 0.3388532698 0.0000000000
vt 0.7903667688 0.3287704587 0.0000000000
vt 0.7932092547 0.3288162649 0.0000000000
vt 0.7903859019 0.3186968267 0.0000000000
vt 0.7932092547 0.3187365234 0.0000000000
vt 0.7904110551 0.3087132573 0.0000000000
vt 0.7932092547 0.3087392151 0.0000000000
vt 0.7904224992 0.2987846434 0.0000000000
vt 0.7932092547 0.2987846434 0.0000000000
vt 0.7904095650 0.2888606191 0.0000000000
vt 0.7932092547 0.2888346612 0.0000000000
vt 0.7903820872 0.2788900435 0.0000000000
vt 0.7932092547 0.2788533866 0.0000000000
vt 0.7903606892 0.2688537836 0.0000000000
vt 0.7932084799 0.2688270807 0.0000000000
vt 0.7903637290 0.2587702274 0.0000000000
vt 0.7932092547 0.2587671876 0.0000000000
vt 0.7903942466 0.2486866713 0.0000000000
vt 0.7932092547 0.2487095743 0.0000000000
vt 0.7904416323 0.2386519760 0.0000000000
vt 0.7932092547 0.2386840284 0.0000000000
vt 0.7904859185 0.2286836654 0.0000000000
vt 0.7932092547 0.2287080884 0.0000000000
vt 0.6536552906 0.3136045635 0.0000000000
vt 0.6436063051 0.3115834594 0.0000000000
vt 0.6536552906 0.2870559990 0.0000000000
vt 0.6350864768 0.3058279753 0.0000000000
vt 0.6293936372 0.2972157598 0.0000000000
vt 0.6273946762 0.2870559990 0.0000000000
vt 0.6293936372 0.2768962681 0.0000000000
vt 0.6350864768 0.2682832778 0.0000000000
vt 0.6436063051 0.2625285685 0.0000000000
vt 0.6536552906 0.2605074644 0.0000000000
vt 0.6637042761 0.2625285685 0.0000000000
vt 0.6722240448 0.2682832778 0.0000000000
vt 0.6779168844 0.2768962681 0.0000000000
vt 0.6799158454 0.2870559990 0.0000000000
vt 0.6779168844 0.2972157598 0.0000000000
vt 0.6722240448 0.3058287501 0.0000000000
vt 0.6637042761 0.3115834594 0.0000000000
vt 0.2706195414 0.3684167564 0.0000000000
vt 0.2706195414 0.3436332047 0.0000000000
vt 0.2801046669 0.3665308952 0.0000000000
vt 0.2881445885 0.3611582220 0.0000000000
vt 0.2935172319 0.3531175256 0.0000000000
vt 0.2954038978 0.3436332047 0.0000000000
vt 0.2935172319 0.3341488838 0.0000000000
vt 0.2881445885 0.3261089325 0.0000000000
vt 0.2801046669 0.3207354844 0.0000000000
vt 0.2706195414 0.3188496232 0.0000000000
vt 0.2611352205 0.3207354844 0.0000000000
vt 0.2530952692 0.3261089325 0.0000000000
vt 0.2477225810 0.3341488838 0.0000000000
vt 0.2458359897 0.3436332047 0.0000000000
vt 0.2477225810 0.3531175256 0.0000000000
vt 0.2530952692 0.3611582220 0.0000000000
vt 0.2611352205 0.3665308952 0.0000000000
vt 0.7885410786 0.2187634408 0.0000000000
vt 0.7847384810 0.2187649757 0.0000000000
vt 0.7847384810 0.2087378949 0.0000000000
vt 0.7885532975 0.2087462991 0.0000000000
vt 0.7847384810 0.1987222731 0.0000000000
vt 0.7885838151 0.1987321973 0.0000000000
vt 0.7847384810 0.1887509227 0.0000000000
vt 0.7886112928 0.1887318343 0.0000000000
vt 0.7847384810 0.1786978841 0.0000000000
vt 0.7885639668 0.1786978841 0.0000000000
vt 0.7885647416 0.3388532698 0.0000000000
vt 0.7847384810 0.3388532698 0.0000000000
vt 0.7847384810 0.3288017511 0.0000000000
vt 0.7886074781 0.3288193047 0.0000000000
vt 0.7847384810 0.3188288808 0.0000000000
vt 0.7885746360 0.3188174367 0.0000000000
vt 0.7847384810 0.3088109493 0.0000000000
vt 0.7885418534 0.3088018000 0.0000000000
vt 0.7847384810 0.2987816036 0.0000000000
vt 0.7885280848 0.2987831235 0.0000000000
vt 0.7847384810 0.2887530029 0.0000000000
vt 0.7885403037 0.2887667418 0.0000000000
vt 0.7847384810 0.2787396610 0.0000000000
vt 0.7885708809 0.2787587345 0.0000000000
vt 0.7847384810 0.2687469423 0.0000000000
vt 0.7886013985 0.2687614262 0.0000000000
vt 0.7847384810 0.2587679625 0.0000000000
vt 0.7886151075 0.2587694824 0.0000000000
vt 0.7847384810 0.2487897128 0.0000000000
vt 0.7886067033 0.2487782687 0.0000000000
vt 0.7847384810 0.2387985140 0.0000000000
vt 0.7885792255 0.2387817204 0.0000000000
vt 0.7847384810 0.2287897617 0.0000000000
vt 0.7885525227 0.2287767828 0.0000000000
# 102 texture coords

o RuedaIzq5
g RuedaIzq5
usemtl ESCALATREN_ESCALATREN_mso
s off
f 1/1/1 2/2/2 3/3/3 
f 3/3/3 4/4/4 1/1/1 
f 4/4/4 3/3/3 5/5/5 
f 5/5/5 6/6/6 4/4/4 
f 6/6/6 5/5/5 7/7/7 
f 7/7/7 8/8/8 6/6/6 
f 8/8/8 7/7/7 9/9/9 
f 9/9/9 10/10/10 8/8/8 
f 10/11/10 9/12/9 11/13/11 
f 11/13/11 12/14/12 10/11/10 
f 12/14/12 11/13/11 13/15/13 
f 13/15/13 14/16/14 12/14/12 
f 14/16/14 13/15/13 15/17/15 
f 15/17/15 16/18/16 14/16/14 
f 16/18/16 15/17/15 17/19/17 
f 17/19/17 18/20/18 16/18/16 
f 18/20/18 17/19/17 19/21/19 
f 19/21/19 20/22/20 18/20/18 
f 20/22/20 19/21/19 21/23/21 
f 21/23/21 22/24/22 20/22/20 
f 22/24/22 21/23/21 23/25/23 
f 23/25/23 24/26/24 22/24/22 
f 24/26/24 23/25/23 25/27/25 
f 25/27/25 26/28/26 24/26/24 
f 26/28/26 25/27/25 27/29/27 
f 27/29/27 28/30/28 26/28/26 
f 28/30/28 27/29/27 29/31/29 
f 29/31/29 30/32/30 28/30/28 
f 30/32/30 29/31/29 31/33/31 
f 31/33/31 32/34/32 30/32/30 
f 32/34/32 31/33/31 2/2/2 
f 2/2/2 1/1/1 32/34/32 
f 1/35/33 4/36/34 33/37/35 
f 4/36/34 6/38/36 33/37/35 
f 6/38/36 8/39/37 33/37/35 
f 8/39/37 10/40/38 33/37/35 
f 10/40/38 12/41/39 33/37/35 
f 12/41/39 14/42/40 33/37/35 
f 14/42/40 16/43/41 33/37/35 
f 16/43/41 18/44/42 33/37/35 
f 18/44/42 20/45/43 33/37/35 
f 20/45/43 22/46/44 33/37/35 
f 22/46/44 24/47/45 33/37/35 
f 24/47/45 26/48/46 33/37/35 
f 26/48/46 28/49/47 33/37/35 
f 28/49/47 30/50/48 33/37/35 
f 30/50/48 32/51/49 33/37/35 
f 32/51/49 1/35/33 33/37/35 
f 34/52/50 35/53/51 36/54/52 
f 36/54/52 35/53/51 37/55/53 
f 37/55/53 35/53/51 38/56/54 
f 38/56/54 35/53/51 39/57/55 
f 39/57/55 35/53/51 40/58/56 
f 40/58/56 35/53/51 41/59/57 
f 41/59/57 35/53/51 42/60/58 
f 42/60/58 35/53/51 43/61/59 
f 43/61/59 35/53/51 44/62/60 
f 44/62/60 35/53/51 45/63/61 
f 45/63/61 35/53/51 46/64/62 
f 46/64/62 35/53/51 47/65/63 
f 47/65/63 35/53/51 48/66/64 
f 48/66/64 35/53/51 49/67/65 
f 49/67/65 35/53/51 50/68/66 
f 50/68/66 35/53/51 34/52/50 
f 51/69/67 34/70/68 36/71/69 
f 36/71/69 52/72/70 51/69/67 
f 52/72/70 36/71/69 37/73/71 
f 37/73/71 53/74/72 52/72/70 
f 53/74/72 37/73/71 38/75/73 
f 38/75/73 54/76/74 53/74/72 
f 54/76/74 38/75/73 39/77/75 
f 39/77/75 55/78/76 54/76/74 
f 55/79/76 39/80/75 40/81/77 
f 40/81/77 56/82/78 55/79/76 
f 56/82/78 40/81/77 41/83/79 
f 41/83/79 57/84/80 56/82/78 
f 57/84/80 41/83/79 42/85/81 
f 42/85/81 58/86/82 57/84/80 
f 58/86/82 42/85/81 43/87/83 
f 43/87/83 59/88/84 58/86/82 
f 59/88/84 43/87/83 44/89/85 
f 44/89/85 60/90/86 59/88/84 
f 60/90/86 44/89/85 45/91/87 
f 45/91/87 61/92/88 60/90/86 
f 61/92/88 45/91/87 46/93/89 
f 46/93/89 62/94/90 61/92/88 
f 62/94/90 46/93/89 47/95/91 
f 47/95/91 63/96/92 62/94/90 
f 63/96/92 47/95/91 48/97/93 
f 48/97/93 64/98/94 63/96/92 
f 64/98/94 48/97/93 49/99/95 
f 49/99/95 65/100/96 64/98/94 
f 65/100/96 49/99/95 50/101/97 
f 50/101/97 66/102/98 65/100/96 
f 66/102/98 50/101/97 34/70/68 
f 34/70/68 51/69/67 66/102/98 
f 51/69/67 52/72/70 3/3/3 
f 3/3/3 2/2/2 51/69/67 
f 66/102/98 51/69/67 2/2/2 
f 2/2/2 31/33/31 66/102/98 
f 65/100/96 66/102/98 31/33/31 
f 31/33/31 29/31/29 65/100/96 
f 64/98/94 65/100/96 29/31/29 
f 29/31/29 27/29/27 64/98/94 
f 63/96/92 64/98/94 27/29/27 
f 27/29/27 25/27/25 63/96/92 
f 62/94/90 63/96/92 25/27/25 
f 25/27/25 23/25/23 62/94/90 
f 61/92/88 62/94/90 23/25/23 
f 23/25/23 21/23/21 61/92/88 
f 60/90/86 61/92/88 21/23/21 
f 21/23/21 19/21/19 60/90/86 
f 59/88/84 60/90/86 19/21/19 
f 19/21/19 17/19/17 59/88/84 
f 58/86/82 59/88/84 17/19/17 
f 17/19/17 15/17/15 58/86/82 
f 57/84/80 58/86/82 15/17/15 
f 15/17/15 13/15/13 57/84/80 
f 56/82/78 57/84/80 13/15/13 
f 13/15/13 11/13/11 56/82/78 
f 55/79/76 56/82/78 11/13/11 
f 11/13/11 9/12/9 55/79/76 
f 54/76/74 55/78/76 9/9/9 
f 9/9/9 7/7/7 54/76/74 
f 53/74/72 54/76/74 7/7/7 
f 7/7/7 5/5/5 53/74/72 
f 52/72/70 53/74/72 5/5/5 
f 5/5/5 3/3/3 52/72/70 
# 128 faces

